#VRML V2.0 utf8

Viewpoint {
 position 0 0 85.00107574
 orientation 1 0 0 0
 description "Z view"
 fieldOfView 0.800655
}
DirectionalLight {
 direction -0.348155 -0.348155   -0.870
}
NavigationInfo {
 headlight TRUE
 type "EXAMINE"
}
Shape {
 appearance Appearance {
  material Material { diffuseColor 1.0 1.0 1.0 }
 }
 geometry IndexedFaceSet {
  coord Coordinate {
   point [
-4.264691 1.122635 0.772415,
-4.377547 1.522281 0.470490,
-4.216626 1.332219 0.021492,
-3.890031 2.009018 0.300934,
-4.216626 1.332219 0.021492,
-4.377547 1.522281 0.470490,
-4.059537 1.634970 0.987480,
-3.890031 2.009018 0.300934,
-4.377547 1.522281 0.470490,
-4.264691 1.122635 0.772415,
-4.059537 1.634970 0.987480,
-4.377547 1.522281 0.470490,
-3.510602 1.258094 1.213585,
-4.059537 1.634970 0.987480,
-4.264691 1.122635 0.772415,
-3.833304 0.663342 0.754601,
-3.510602 1.258094 1.213585,
-4.264691 1.122635 0.772415,
-3.984202 0.686960 0.262520,
-3.833304 0.663342 0.754601,
-4.264691 1.122635 0.772415,
-4.216626 1.332219 0.021492,
-3.984202 0.686960 0.262520,
-4.264691 1.122635 0.772415,
-3.817382 1.002512 -0.200706,
-3.984202 0.686960 0.262520,
-4.216626 1.332219 0.021492,
-3.698640 1.772554 -0.137817,
-3.817382 1.002512 -0.200706,
-4.216626 1.332219 0.021492,
-3.890031 2.009018 0.300934,
-3.698640 1.772554 -0.137817,
-4.216626 1.332219 0.021492,
-3.182910 1.972355 0.256493,
-3.698640 1.772554 -0.137817,
-3.890031 2.009018 0.300934,
-3.594525 2.019773 0.763474,
-3.182910 1.972355 0.256493,
-3.890031 2.009018 0.300934,
-4.059537 1.634970 0.987480,
-3.594525 2.019773 0.763474,
-3.890031 2.009018 0.300934,
-3.510602 1.258094 1.213585,
-3.594525 2.019773 0.763474,
-4.059537 1.634970 0.987480,
-3.131852 1.805369 0.837265,
-3.594525 2.019773 0.763474,
-3.510602 1.258094 1.213585,
-3.182910 1.972355 0.256493,
-3.594525 2.019773 0.763474,
-3.131852 1.805369 0.837265,
-2.530309 1.439059 0.688080,
-3.182910 1.972355 0.256493,
-3.131852 1.805369 0.837265,
-2.586705 0.840756 1.007477,
-2.530309 1.439059 0.688080,
-3.131852 1.805369 0.837265,
-3.510602 1.258094 1.213585,
-2.586705 0.840756 1.007477,
-3.131852 1.805369 0.837265,
-1.635422 1.037104 0.912979,
-2.530309 1.439059 0.688080,
-2.586705 0.840756 1.007477,
-2.040074 0.012171 1.410469,
-1.635422 1.037104 0.912979,
-2.586705 0.840756 1.007477,
-1.278080 0.186021 1.545403,
-1.635422 1.037104 0.912979,
-2.040074 0.012171 1.410469,
-1.731960 -0.515345 1.770607,
-1.278080 0.186021 1.545403,
-2.040074 0.012171 1.410469,
-1.778997 -0.903698 1.172165,
-1.731960 -0.515345 1.770607,
-2.040074 0.012171 1.410469,
-2.147385 -0.309853 0.796051,
-1.778997 -0.903698 1.172165,
-2.040074 0.012171 1.410469,
-2.705060 0.338199 0.663116,
-2.147385 -0.309853 0.796051,
-2.040074 0.012171 1.410469,
-2.134694 -0.817195 0.248405,
-2.147385 -0.309853 0.796051,
-2.705060 0.338199 0.663116,
-1.778997 -0.903698 1.172165,
-2.147385 -0.309853 0.796051,
-2.134694 -0.817195 0.248405,
-1.872108 -1.488341 0.687439,
-1.778997 -0.903698 1.172165,
-2.134694 -0.817195 0.248405,
-1.722743 -1.476650 -0.369858,
-1.872108 -1.488341 0.687439,
-2.134694 -0.817195 0.248405,
-2.064339 -0.510411 -0.850777,
-1.722743 -1.476650 -0.369858,
-2.134694 -0.817195 0.248405,
-1.283929 -1.177163 -1.354439,
-1.722743 -1.476650 -0.369858,
-2.064339 -0.510411 -0.850777,
-1.368696 -0.075110 -1.646927,
-1.283929 -1.177163 -1.354439,
-2.064339 -0.510411 -0.850777,
-1.891958 0.477302 -0.981094,
-1.368696 -0.075110 -1.646927,
-2.064339 -0.510411 -0.850777,
-2.287942 0.895342 -0.477226,
-1.891958 0.477302 -0.981094,
-2.064339 -0.510411 -0.850777,
-2.188347 1.352348 -0.283562,
-1.891958 0.477302 -0.981094,
-2.287942 0.895342 -0.477226,
-1.712475 1.517347 0.111832,
-1.891958 0.477302 -0.981094,
-2.188347 1.352348 -0.283562,
-1.049666 1.489892 -1.746529,
-1.368696 -0.075110 -1.646927,
-1.891958 0.477302 -0.981094,
-1.026401 1.808992 -1.194542,
-1.049666 1.489892 -1.746529,
-1.891958 0.477302 -0.981094,
-1.712475 1.517347 0.111832,
-1.026401 1.808992 -1.194542,
-1.891958 0.477302 -0.981094,
-0.640746 1.721108 -0.420761,
-1.026401 1.808992 -1.194542,
-1.712475 1.517347 0.111832,
-0.991261 1.532145 0.382652,
-0.640746 1.721108 -0.420761,
-1.712475 1.517347 0.111832,
-0.109478 1.665331 0.476265,
-0.640746 1.721108 -0.420761,
-0.991261 1.532145 0.382652,
-0.678308 1.112826 1.247818,
-0.109478 1.665331 0.476265,
-0.991261 1.532145 0.382652,
0.472766 0.670109 1.432457,
-0.109478 1.665331 0.476265,
-0.678308 1.112826 1.247818,
-0.290382 0.309151 1.723099,
0.472766 0.670109 1.432457,
-0.678308 1.112826 1.247818,
0.438424 -0.268347 1.689842,
0.472766 0.670109 1.432457,
-0.290382 0.309151 1.723099,
-0.541149 -0.670333 1.721069,
0.438424 -0.268347 1.689842,
-0.290382 0.309151 1.723099,
0.138766 -1.224636 1.695595,
0.438424 -0.268347 1.689842,
-0.541149 -0.670333 1.721069,
-0.757913 -1.501546 1.187798,
0.138766 -1.224636 1.695595,
-0.541149 -0.670333 1.721069,
-1.223598 -0.791583 1.775200,
-0.757913 -1.501546 1.187798,
-0.541149 -0.670333 1.721069,
-1.253989 -1.336102 1.259079,
-0.757913 -1.501546 1.187798,
-1.223598 -0.791583 1.775200,
-0.234863 -1.770185 1.180984,
0.138766 -1.224636 1.695595,
-0.757913 -1.501546 1.187798,
-0.665055 -2.183594 0.427681,
-0.234863 -1.770185 1.180984,
-0.757913 -1.501546 1.187798,
0.108662 -2.143217 0.538345,
-0.234863 -1.770185 1.180984,
-0.665055 -2.183594 0.427681,
0.018116 -2.001131 -0.538918,
0.108662 -2.143217 0.538345,
-0.665055 -2.183594 0.427681,
-1.094829 -1.872759 -0.578369,
0.018116 -2.001131 -0.538918,
-0.665055 -2.183594 0.427681,
-1.398394 -2.225439 0.035950,
-1.094829 -1.872759 -0.578369,
-0.665055 -2.183594 0.427681,
-0.176317 -1.460721 -1.362694,
0.018116 -2.001131 -0.538918,
-1.094829 -1.872759 -0.578369,
0.245783 -1.725153 -1.061378,
0.018116 -2.001131 -0.538918,
-0.176317 -1.460721 -1.362694,
0.788846 -1.271532 -1.425285,
0.245783 -1.725153 -1.061378,
-0.176317 -1.460721 -1.362694,
0.423453 -0.533916 -1.660286,
0.788846 -1.271532 -1.425285,
-0.176317 -1.460721 -1.362694,
-0.564242 -0.657045 -1.837982,
0.423453 -0.533916 -1.660286,
-0.176317 -1.460721 -1.362694,
-0.331676 0.245214 -1.946938,
0.423453 -0.533916 -1.660286,
-0.564242 -0.657045 -1.837982,
0.241539 0.378010 -1.752090,
0.423453 -0.533916 -1.660286,
-0.331676 0.245214 -1.946938,
-0.568947 1.189316 -1.939362,
0.241539 0.378010 -1.752090,
-0.331676 0.245214 -1.946938,
-0.167511 1.714290 -1.872948,
0.241539 0.378010 -1.752090,
-0.568947 1.189316 -1.939362,
0.781176 1.018476 -1.397125,
0.241539 0.378010 -1.752090,
-0.167511 1.714290 -1.872948,
1.286964 0.347549 -0.993118,
0.241539 0.378010 -1.752090,
0.781176 1.018476 -1.397125,
1.486274 1.140775 -0.639740,
1.286964 0.347549 -0.993118,
0.781176 1.018476 -1.397125,
1.262424 1.495302 -0.944244,
1.486274 1.140775 -0.639740,
0.781176 1.018476 -1.397125,
1.391546 1.904962 -0.599190,
1.486274 1.140775 -0.639740,
1.262424 1.495302 -0.944244,
1.234286 2.154305 -1.305260,
1.391546 1.904962 -0.599190,
1.262424 1.495302 -0.944244,
0.781176 1.018476 -1.397125,
1.234286 2.154305 -1.305260,
1.262424 1.495302 -0.944244,
1.772445 1.543322 0.435364,
1.486274 1.140775 -0.639740,
1.391546 1.904962 -0.599190,
1.250778 2.497494 -0.103798,
1.772445 1.543322 0.435364,
1.391546 1.904962 -0.599190,
1.234286 2.154305 -1.305260,
1.250778 2.497494 -0.103798,
1.391546 1.904962 -0.599190,
1.287608 1.576431 0.893005,
1.772445 1.543322 0.435364,
1.250778 2.497494 -0.103798,
0.336796 1.927531 0.119804,
1.287608 1.576431 0.893005,
1.250778 2.497494 -0.103798,
0.629580 2.707616 -0.182304,
0.336796 1.927531 0.119804,
1.250778 2.497494 -0.103798,
0.896447 3.371614 -0.205826,
0.629580 2.707616 -0.182304,
1.250778 2.497494 -0.103798,
-0.084689 2.228981 -0.758858,
0.336796 1.927531 0.119804,
0.629580 2.707616 -0.182304,
0.396439 2.963531 -1.038490,
-0.084689 2.228981 -0.758858,
0.629580 2.707616 -0.182304,
0.089903 2.372068 -1.742455,
-0.084689 2.228981 -0.758858,
0.396439 2.963531 -1.038490,
0.576553 2.710310 -2.036293,
0.089903 2.372068 -1.742455,
0.396439 2.963531 -1.038490,
1.138381 2.886636 -1.729645,
0.576553 2.710310 -2.036293,
0.396439 2.963531 -1.038490,
1.078919 2.377541 -2.175621,
0.576553 2.710310 -2.036293,
1.138381 2.886636 -1.729645,
1.078919 2.377541 -2.175621,
0.089903 2.372068 -1.742455,
0.576553 2.710310 -2.036293,
1.760488 0.852619 0.774574,
1.772445 1.543322 0.435364,
1.287608 1.576431 0.893005,
1.113855 0.916155 1.093658,
1.760488 0.852619 0.774574,
1.287608 1.576431 0.893005,
1.648434 0.037508 1.190277,
1.760488 0.852619 0.774574,
1.113855 0.916155 1.093658,
2.138150 0.247741 0.484550,
1.760488 0.852619 0.774574,
1.648434 0.037508 1.190277,
2.410603 -0.655239 0.612320,
2.138150 0.247741 0.484550,
1.648434 0.037508 1.190277,
1.718540 -0.873920 1.432167,
2.410603 -0.655239 0.612320,
1.648434 0.037508 1.190277,
1.053235 -0.392645 1.590172,
1.718540 -0.873920 1.432167,
1.648434 0.037508 1.190277,
0.845845 -1.202704 1.588493,
1.718540 -0.873920 1.432167,
1.053235 -0.392645 1.590172,
1.491266 -1.754126 1.171951,
1.718540 -0.873920 1.432167,
0.845845 -1.202704 1.588493,
0.666576 -1.890140 1.147461,
1.491266 -1.754126 1.171951,
0.845845 -1.202704 1.588493,
1.053425 -2.266901 0.509010,
1.491266 -1.754126 1.171951,
0.666576 -1.890140 1.147461,
1.873239 -2.138534 0.308388,
1.491266 -1.754126 1.171951,
1.053425 -2.266901 0.509010,
1.394029 -2.313172 -0.245865,
1.873239 -2.138534 0.308388,
1.053425 -2.266901 0.509010,
0.572253 -2.216381 -0.303421,
1.394029 -2.313172 -0.245865,
1.053425 -2.266901 0.509010,
1.137514 -1.883595 -1.075249,
1.394029 -2.313172 -0.245865,
0.572253 -2.216381 -0.303421,
1.668587 -1.982738 -1.039566,
1.394029 -2.313172 -0.245865,
1.137514 -1.883595 -1.075249,
1.631262 -1.120626 -1.320229,
1.668587 -1.982738 -1.039566,
1.137514 -1.883595 -1.075249,
2.389585 -2.434593 -0.924225,
1.394029 -2.313172 -0.245865,
1.668587 -1.982738 -1.039566,
2.772637 -1.536739 -1.359940,
2.389585 -2.434593 -0.924225,
1.668587 -1.982738 -1.039566,
1.631262 -1.120626 -1.320229,
2.772637 -1.536739 -1.359940,
1.668587 -1.982738 -1.039566,
2.421510 -0.941136 -0.996773,
2.772637 -1.536739 -1.359940,
1.631262 -1.120626 -1.320229,
1.870871 -0.209678 -0.947762,
2.421510 -0.941136 -0.996773,
1.631262 -1.120626 -1.320229,
2.336486 -0.185170 -0.284004,
2.421510 -0.941136 -0.996773,
1.870871 -0.209678 -0.947762,
1.855524 0.507587 -0.343788,
2.336486 -0.185170 -0.284004,
1.870871 -0.209678 -0.947762,
3.114514 -1.182793 -0.939522,
2.421510 -0.941136 -0.996773,
2.336486 -0.185170 -0.284004,
2.772637 -1.536739 -1.359940,
2.421510 -0.941136 -0.996773,
3.114514 -1.182793 -0.939522,
3.456223 -1.827606 -0.973114,
2.772637 -1.536739 -1.359940,
3.114514 -1.182793 -0.939522,
3.423480 -1.333557 -0.505234,
3.456223 -1.827606 -0.973114,
3.114514 -1.182793 -0.939522,
3.478709 -1.818293 -0.242989,
3.456223 -1.827606 -0.973114,
3.423480 -1.333557 -0.505234,
3.117929 -1.301131 0.069756,
3.478709 -1.818293 -0.242989,
3.423480 -1.333557 -0.505234,
3.157335 -1.813437 0.205719,
3.478709 -1.818293 -0.242989,
3.117929 -1.301131 0.069756,
2.692027 -1.448698 0.403870,
3.157335 -1.813437 0.205719,
3.117929 -1.301131 0.069756,
3.217332 -2.377552 -0.740707,
3.456223 -1.827606 -0.973114,
3.478709 -1.818293 -0.242989,
2.761902 -2.480291 -0.141968,
3.217332 -2.377552 -0.740707,
3.478709 -1.818293 -0.242989,
3.157335 -1.813437 0.205719,
2.761902 -2.480291 -0.141968,
3.478709 -1.818293 -0.242989,
2.930720 -2.056848 -1.264351,
3.456223 -1.827606 -0.973114,
3.217332 -2.377552 -0.740707,
2.772637 -1.536739 -1.359940,
3.456223 -1.827606 -0.973114,
2.930720 -2.056848 -1.264351,
2.930720 -2.056848 -1.264351,
2.389585 -2.434593 -0.924225,
2.772637 -1.536739 -1.359940,
3.217332 -2.377552 -0.740707,
2.389585 -2.434593 -0.924225,
2.930720 -2.056848 -1.264351,
2.761902 -2.480291 -0.141968,
2.389585 -2.434593 -0.924225,
3.217332 -2.377552 -0.740707,
1.873239 -2.138534 0.308388,
1.394029 -2.313172 -0.245865,
2.389585 -2.434593 -0.924225,
2.761902 -2.480291 -0.141968,
1.873239 -2.138534 0.308388,
2.389585 -2.434593 -0.924225,
0.423453 -0.533916 -1.660286,
0.241539 0.378010 -1.752090,
1.286964 0.347549 -0.993118,
-1.735929 -2.113402 0.590958,
-1.872108 -1.488341 0.687439,
-1.722743 -1.476650 -0.369858,
-2.586705 0.840756 1.007477,
-3.510602 1.258094 1.213585,
-3.833304 0.663342 0.754601,
-2.705060 0.338199 0.663116,
-2.040074 0.012171 1.410469,
-2.586705 0.840756 1.007477,
-3.833304 0.663342 0.754601,
-2.705060 0.338199 0.663116,
-2.586705 0.840756 1.007477,
-3.984202 0.686960 0.262520,
-2.705060 0.338199 0.663116,
-3.833304 0.663342 0.754601,
-3.817382 1.002512 -0.200706,
-2.705060 0.338199 0.663116,
-3.984202 0.686960 0.262520,
2.761902 -2.480291 -0.141968,
3.157335 -1.813437 0.205719,
2.692027 -1.448698 0.403870,
1.873239 -2.138534 0.308388,
2.761902 -2.480291 -0.141968,
2.692027 -1.448698 0.403870,
1.491266 -1.754126 1.171951,
1.873239 -2.138534 0.308388,
2.692027 -1.448698 0.403870,
1.718540 -0.873920 1.432167,
1.491266 -1.754126 1.171951,
2.692027 -1.448698 0.403870,
2.410603 -0.655239 0.612320,
1.718540 -0.873920 1.432167,
2.692027 -1.448698 0.403870,
3.117929 -1.301131 0.069756,
2.410603 -0.655239 0.612320,
2.692027 -1.448698 0.403870,
3.114514 -1.182793 -0.939522,
3.117929 -1.301131 0.069756,
3.423480 -1.333557 -0.505234,
2.336486 -0.185170 -0.284004,
3.117929 -1.301131 0.069756,
3.114514 -1.182793 -0.939522,
2.410603 -0.655239 0.612320,
3.117929 -1.301131 0.069756,
2.336486 -0.185170 -0.284004,
2.138150 0.247741 0.484550,
2.410603 -0.655239 0.612320,
2.336486 -0.185170 -0.284004,
1.855524 0.507587 -0.343788,
2.138150 0.247741 0.484550,
2.336486 -0.185170 -0.284004,
1.760488 0.852619 0.774574,
2.138150 0.247741 0.484550,
1.855524 0.507587 -0.343788,
1.772445 1.543322 0.435364,
1.760488 0.852619 0.774574,
1.855524 0.507587 -0.343788,
1.486274 1.140775 -0.639740,
1.772445 1.543322 0.435364,
1.855524 0.507587 -0.343788,
1.286964 0.347549 -0.993118,
1.486274 1.140775 -0.639740,
1.855524 0.507587 -0.343788,
1.870871 -0.209678 -0.947762,
1.286964 0.347549 -0.993118,
1.855524 0.507587 -0.343788,
1.631262 -1.120626 -1.320229,
1.286964 0.347549 -0.993118,
1.870871 -0.209678 -0.947762,
0.423453 -0.533916 -1.660286,
1.286964 0.347549 -0.993118,
1.631262 -1.120626 -1.320229,
0.788846 -1.271532 -1.425285,
0.423453 -0.533916 -1.660286,
1.631262 -1.120626 -1.320229,
1.137514 -1.883595 -1.075249,
0.788846 -1.271532 -1.425285,
1.631262 -1.120626 -1.320229,
0.245783 -1.725153 -1.061378,
0.788846 -1.271532 -1.425285,
1.137514 -1.883595 -1.075249,
0.572253 -2.216381 -0.303421,
0.245783 -1.725153 -1.061378,
1.137514 -1.883595 -1.075249,
0.018116 -2.001131 -0.538918,
0.245783 -1.725153 -1.061378,
0.572253 -2.216381 -0.303421,
0.108662 -2.143217 0.538345,
0.018116 -2.001131 -0.538918,
0.572253 -2.216381 -0.303421,
1.053425 -2.266901 0.509010,
0.108662 -2.143217 0.538345,
0.572253 -2.216381 -0.303421,
0.666576 -1.890140 1.147461,
0.108662 -2.143217 0.538345,
1.053425 -2.266901 0.509010,
-0.234863 -1.770185 1.180984,
0.108662 -2.143217 0.538345,
0.666576 -1.890140 1.147461,
0.138766 -1.224636 1.695595,
-0.234863 -1.770185 1.180984,
0.666576 -1.890140 1.147461,
0.845845 -1.202704 1.588493,
0.138766 -1.224636 1.695595,
0.666576 -1.890140 1.147461,
0.438424 -0.268347 1.689842,
0.138766 -1.224636 1.695595,
0.845845 -1.202704 1.588493,
1.053235 -0.392645 1.590172,
0.438424 -0.268347 1.689842,
0.845845 -1.202704 1.588493,
0.472766 0.670109 1.432457,
0.438424 -0.268347 1.689842,
1.053235 -0.392645 1.590172,
1.648434 0.037508 1.190277,
0.472766 0.670109 1.432457,
1.053235 -0.392645 1.590172,
1.113855 0.916155 1.093658,
0.472766 0.670109 1.432457,
1.648434 0.037508 1.190277,
1.287608 1.576431 0.893005,
0.472766 0.670109 1.432457,
1.113855 0.916155 1.093658,
-0.109478 1.665331 0.476265,
0.472766 0.670109 1.432457,
1.287608 1.576431 0.893005,
0.336796 1.927531 0.119804,
-0.109478 1.665331 0.476265,
1.287608 1.576431 0.893005,
-0.640746 1.721108 -0.420761,
-0.109478 1.665331 0.476265,
0.336796 1.927531 0.119804,
-0.084689 2.228981 -0.758858,
-0.640746 1.721108 -0.420761,
0.336796 1.927531 0.119804,
-1.026401 1.808992 -1.194542,
-0.640746 1.721108 -0.420761,
-0.084689 2.228981 -0.758858,
0.089903 2.372068 -1.742455,
-1.026401 1.808992 -1.194542,
-0.084689 2.228981 -0.758858,
-0.167511 1.714290 -1.872948,
1.234286 2.154305 -1.305260,
0.781176 1.018476 -1.397125,
0.396439 2.963531 -1.038490,
0.629580 2.707616 -0.182304,
0.896447 3.371614 -0.205826,
-1.094829 -1.872759 -0.578369,
-1.722743 -1.476650 -0.369858,
-1.283929 -1.177163 -1.354439,
-0.176317 -1.460721 -1.362694,
-1.094829 -1.872759 -0.578369,
-1.283929 -1.177163 -1.354439,
-0.564242 -0.657045 -1.837982,
-0.176317 -1.460721 -1.362694,
-1.283929 -1.177163 -1.354439,
-1.368696 -0.075110 -1.646927,
-0.564242 -0.657045 -1.837982,
-1.283929 -1.177163 -1.354439,
-0.331676 0.245214 -1.946938,
-0.564242 -0.657045 -1.837982,
-1.368696 -0.075110 -1.646927,
-0.568947 1.189316 -1.939362,
-0.331676 0.245214 -1.946938,
-1.368696 -0.075110 -1.646927,
-1.049666 1.489892 -1.746529,
-0.568947 1.189316 -1.939362,
-1.368696 -0.075110 -1.646927,
-0.167511 1.714290 -1.872948,
-0.568947 1.189316 -1.939362,
-1.049666 1.489892 -1.746529,
-1.026401 1.808992 -1.194542,
-0.167511 1.714290 -1.872948,
-1.049666 1.489892 -1.746529,
0.089903 2.372068 -1.742455,
-0.167511 1.714290 -1.872948,
-1.026401 1.808992 -1.194542,
1.078919 2.377541 -2.175621,
-0.167511 1.714290 -1.872948,
0.089903 2.372068 -1.742455,
-1.398394 -2.225439 0.035950,
-1.722743 -1.476650 -0.369858,
-1.094829 -1.872759 -0.578369,
1.234286 2.154305 -1.305260,
1.078919 2.377541 -2.175621,
1.138381 2.886636 -1.729645,
1.250778 2.497494 -0.103798,
1.234286 2.154305 -1.305260,
1.138381 2.886636 -1.729645,
-1.735929 -2.113402 0.590958,
-0.665055 -2.183594 0.427681,
-0.757913 -1.501546 1.187798,
-1.253989 -1.336102 1.259079,
-1.735929 -2.113402 0.590958,
-0.757913 -1.501546 1.187798,
-1.872108 -1.488341 0.687439,
-1.735929 -2.113402 0.590958,
-1.253989 -1.336102 1.259079,
-1.778997 -0.903698 1.172165,
-1.872108 -1.488341 0.687439,
-1.253989 -1.336102 1.259079,
-1.223598 -0.791583 1.775200,
-1.778997 -0.903698 1.172165,
-1.253989 -1.336102 1.259079,
-1.731960 -0.515345 1.770607,
-1.778997 -0.903698 1.172165,
-1.223598 -0.791583 1.775200,
-1.278080 0.186021 1.545403,
-1.731960 -0.515345 1.770607,
-1.223598 -0.791583 1.775200,
-0.541149 -0.670333 1.721069,
-1.278080 0.186021 1.545403,
-1.223598 -0.791583 1.775200,
-0.290382 0.309151 1.723099,
-1.278080 0.186021 1.545403,
-0.541149 -0.670333 1.721069,
-0.678308 1.112826 1.247818,
-1.278080 0.186021 1.545403,
-0.290382 0.309151 1.723099,
-1.635422 1.037104 0.912979,
-1.278080 0.186021 1.545403,
-0.678308 1.112826 1.247818,
-0.991261 1.532145 0.382652,
-1.635422 1.037104 0.912979,
-0.678308 1.112826 1.247818,
-1.712475 1.517347 0.111832,
-1.635422 1.037104 0.912979,
-0.991261 1.532145 0.382652,
-2.530309 1.439059 0.688080,
-1.635422 1.037104 0.912979,
-1.712475 1.517347 0.111832,
-2.188347 1.352348 -0.283562,
-2.530309 1.439059 0.688080,
-1.712475 1.517347 0.111832,
-3.182910 1.972355 0.256493,
-2.530309 1.439059 0.688080,
-2.188347 1.352348 -0.283562,
-3.698640 1.772554 -0.137817,
-3.182910 1.972355 0.256493,
-2.188347 1.352348 -0.283562,
-2.287942 0.895342 -0.477226,
-3.698640 1.772554 -0.137817,
-2.188347 1.352348 -0.283562,
-3.817382 1.002512 -0.200706,
-3.698640 1.772554 -0.137817,
-2.287942 0.895342 -0.477226,
-2.064339 -0.510411 -0.850777,
-3.817382 1.002512 -0.200706,
-2.287942 0.895342 -0.477226,
-1.909441 -2.852076 0.664749,
-0.665055 -2.183594 0.427681,
-1.735929 -2.113402 0.590958,
-2.064339 -0.510411 -0.850777,
-2.134694 -0.817195 0.248405,
-2.705060 0.338199 0.663116,
-1.398394 -2.225439 0.035950,
-1.735929 -2.113402 0.590958,
-1.722743 -1.476650 -0.369858,
-3.817382 1.002512 -0.200706,
-2.064339 -0.510411 -0.850777,
-2.705060 0.338199 0.663116,
1.078919 2.377541 -2.175621,
1.234286 2.154305 -1.305260,
-0.167511 1.714290 -1.872948,
1.250778 2.497494 -0.103798,
0.896447 3.371614 -0.205826,
0.396439 2.963531 -1.038490,
1.138381 2.886636 -1.729645,
0.396439 2.963531 -1.038490,
1.250778 2.497494 -0.103798,
-1.398394 -2.225439 0.035950,
-0.665055 -2.183594 0.427681,
-1.909441 -2.852076 0.664749,
-1.735929 -2.113402 0.590958,
-1.398394 -2.225439 0.035950,
-1.909441 -2.852076 0.664749,
   ]
  }
  coordIndex [
0 1 2 -1,
3 4 5 -1,
6 7 8 -1,
9 10 11 -1,
12 13 14 -1,
15 16 17 -1,
18 19 20 -1,
21 22 23 -1,
24 25 26 -1,
27 28 29 -1,
30 31 32 -1,
33 34 35 -1,
36 37 38 -1,
39 40 41 -1,
42 43 44 -1,
45 46 47 -1,
48 49 50 -1,
51 52 53 -1,
54 55 56 -1,
57 58 59 -1,
60 61 62 -1,
63 64 65 -1,
66 67 68 -1,
69 70 71 -1,
72 73 74 -1,
75 76 77 -1,
78 79 80 -1,
81 82 83 -1,
84 85 86 -1,
87 88 89 -1,
90 91 92 -1,
93 94 95 -1,
96 97 98 -1,
99 100 101 -1,
102 103 104 -1,
105 106 107 -1,
108 109 110 -1,
111 112 113 -1,
114 115 116 -1,
117 118 119 -1,
120 121 122 -1,
123 124 125 -1,
126 127 128 -1,
129 130 131 -1,
132 133 134 -1,
135 136 137 -1,
138 139 140 -1,
141 142 143 -1,
144 145 146 -1,
147 148 149 -1,
150 151 152 -1,
153 154 155 -1,
156 157 158 -1,
159 160 161 -1,
162 163 164 -1,
165 166 167 -1,
168 169 170 -1,
171 172 173 -1,
174 175 176 -1,
177 178 179 -1,
180 181 182 -1,
183 184 185 -1,
186 187 188 -1,
189 190 191 -1,
192 193 194 -1,
195 196 197 -1,
198 199 200 -1,
201 202 203 -1,
204 205 206 -1,
207 208 209 -1,
210 211 212 -1,
213 214 215 -1,
216 217 218 -1,
219 220 221 -1,
222 223 224 -1,
225 226 227 -1,
228 229 230 -1,
231 232 233 -1,
234 235 236 -1,
237 238 239 -1,
240 241 242 -1,
243 244 245 -1,
246 247 248 -1,
249 250 251 -1,
252 253 254 -1,
255 256 257 -1,
258 259 260 -1,
261 262 263 -1,
264 265 266 -1,
267 268 269 -1,
270 271 272 -1,
273 274 275 -1,
276 277 278 -1,
279 280 281 -1,
282 283 284 -1,
285 286 287 -1,
288 289 290 -1,
291 292 293 -1,
294 295 296 -1,
297 298 299 -1,
300 301 302 -1,
303 304 305 -1,
306 307 308 -1,
309 310 311 -1,
312 313 314 -1,
315 316 317 -1,
318 319 320 -1,
321 322 323 -1,
324 325 326 -1,
327 328 329 -1,
330 331 332 -1,
333 334 335 -1,
336 337 338 -1,
339 340 341 -1,
342 343 344 -1,
345 346 347 -1,
348 349 350 -1,
351 352 353 -1,
354 355 356 -1,
357 358 359 -1,
360 361 362 -1,
363 364 365 -1,
366 367 368 -1,
369 370 371 -1,
372 373 374 -1,
375 376 377 -1,
378 379 380 -1,
381 382 383 -1,
384 385 386 -1,
387 388 389 -1,
390 391 392 -1,
393 394 395 -1,
396 397 398 -1,
399 400 401 -1,
402 403 404 -1,
405 406 407 -1,
408 409 410 -1,
411 412 413 -1,
414 415 416 -1,
417 418 419 -1,
420 421 422 -1,
423 424 425 -1,
426 427 428 -1,
429 430 431 -1,
432 433 434 -1,
435 436 437 -1,
438 439 440 -1,
441 442 443 -1,
444 445 446 -1,
447 448 449 -1,
450 451 452 -1,
453 454 455 -1,
456 457 458 -1,
459 460 461 -1,
462 463 464 -1,
465 466 467 -1,
468 469 470 -1,
471 472 473 -1,
474 475 476 -1,
477 478 479 -1,
480 481 482 -1,
483 484 485 -1,
486 487 488 -1,
489 490 491 -1,
492 493 494 -1,
495 496 497 -1,
498 499 500 -1,
501 502 503 -1,
504 505 506 -1,
507 508 509 -1,
510 511 512 -1,
513 514 515 -1,
516 517 518 -1,
519 520 521 -1,
522 523 524 -1,
525 526 527 -1,
528 529 530 -1,
531 532 533 -1,
534 535 536 -1,
537 538 539 -1,
540 541 542 -1,
543 544 545 -1,
546 547 548 -1,
549 550 551 -1,
552 553 554 -1,
555 556 557 -1,
558 559 560 -1,
561 562 563 -1,
564 565 566 -1,
567 568 569 -1,
570 571 572 -1,
573 574 575 -1,
576 577 578 -1,
579 580 581 -1,
582 583 584 -1,
585 586 587 -1,
588 589 590 -1,
591 592 593 -1,
594 595 596 -1,
597 598 599 -1,
600 601 602 -1,
603 604 605 -1,
606 607 608 -1,
609 610 611 -1,
612 613 614 -1,
615 616 617 -1,
618 619 620 -1,
621 622 623 -1,
624 625 626 -1,
627 628 629 -1,
630 631 632 -1,
633 634 635 -1,
636 637 638 -1,
639 640 641 -1,
642 643 644 -1,
645 646 647 -1,
648 649 650 -1,
651 652 653 -1,
654 655 656 -1,
657 658 659 -1,
660 661 662 -1,
663 664 665 -1,
666 667 668 -1,
669 670 671 -1,
  ]
  colorPerVertex TRUE
  color Color {
   color [
0.6510 0.6510 0.6706,
0.6510 0.6510 0.6706,
0.6510 0.6510 0.6706,
0.6510 0.6510 0.6706,
0.6510 0.6510 0.6706,
0.6510 0.6510 0.6706,
0.6510 0.6510 0.6706,
0.6510 0.6510 0.6706,
0.6510 0.6510 0.6706,
0.6510 0.6510 0.6706,
0.6510 0.6510 0.6706,
0.6510 0.6510 0.6706,
0.6510 0.6510 0.6706,
0.6510 0.6510 0.6706,
0.6510 0.6510 0.6706,
0.6510 0.6510 0.6706,
0.6510 0.6510 0.6706,
0.6510 0.6510 0.6706,
0.6510 0.6510 0.6706,
0.6510 0.6510 0.6706,
0.6510 0.6510 0.6706,
0.6510 0.6510 0.6706,
0.6510 0.6510 0.6706,
0.6510 0.6510 0.6706,
0.6510 0.6510 0.6706,
0.6510 0.6510 0.6706,
0.6510 0.6510 0.6706,
0.6510 0.6510 0.6706,
0.6510 0.6510 0.6706,
0.6510 0.6510 0.6706,
0.6510 0.6510 0.6706,
0.6510 0.6510 0.6706,
0.6510 0.6510 0.6706,
0.6510 0.6510 0.6706,
0.6510 0.6510 0.6706,
0.6510 0.6510 0.6706,
0.6510 0.6510 0.6706,
0.6510 0.6510 0.6706,
0.6510 0.6510 0.6706,
0.6510 0.6510 0.6706,
0.6510 0.6510 0.6706,
0.6510 0.6510 0.6706,
0.6510 0.6510 0.6706,
0.6510 0.6510 0.6706,
0.6510 0.6510 0.6706,
0.6510 0.6510 0.6706,
0.6510 0.6510 0.6706,
0.6510 0.6510 0.6706,
0.6510 0.6510 0.6706,
0.6510 0.6510 0.6706,
0.6510 0.6510 0.6706,
0.6510 0.6510 0.6706,
0.6510 0.6510 0.6706,
0.6510 0.6510 0.6706,
0.6510 0.6510 0.6706,
0.6510 0.6510 0.6706,
0.6510 0.6510 0.6706,
0.6510 0.6510 0.6706,
0.6510 0.6510 0.6706,
0.6510 0.6510 0.6706,
0.6510 0.6510 0.6706,
0.6510 0.6510 0.6706,
0.6510 0.6510 0.6706,
0.6510 0.6510 0.6706,
0.6510 0.6510 0.6706,
0.6510 0.6510 0.6706,
0.6510 0.6510 0.6706,
0.6510 0.6510 0.6706,
0.6510 0.6510 0.6706,
0.6510 0.6510 0.6706,
0.6510 0.6510 0.6706,
0.6510 0.6510 0.6706,
0.6510 0.6510 0.6706,
0.6510 0.6510 0.6706,
0.6510 0.6510 0.6706,
0.6510 0.6510 0.6706,
0.6510 0.6510 0.6706,
0.6510 0.6510 0.6706,
0.6510 0.6510 0.6706,
0.6510 0.6510 0.6706,
0.6510 0.6510 0.6706,
0.6510 0.6510 0.6706,
0.6510 0.6510 0.6706,
0.6510 0.6510 0.6706,
0.6510 0.6510 0.6706,
0.6510 0.6510 0.6706,
0.6510 0.6510 0.6706,
0.6510 0.6510 0.6706,
0.6510 0.6510 0.6706,
0.6510 0.6510 0.6706,
0.6510 0.6510 0.6706,
0.6510 0.6510 0.6706,
0.6510 0.6510 0.6706,
0.6510 0.6510 0.6706,
0.6510 0.6510 0.6706,
0.6510 0.6510 0.6706,
0.6510 0.6510 0.6706,
0.6510 0.6510 0.6706,
0.6510 0.6510 0.6706,
0.6510 0.6510 0.6706,
0.6510 0.6510 0.6706,
0.6510 0.6510 0.6706,
0.6510 0.6510 0.6706,
0.6510 0.6510 0.6706,
0.6510 0.6510 0.6706,
0.6510 0.6510 0.6706,
0.6510 0.6510 0.6706,
0.6510 0.6510 0.6706,
0.6510 0.6510 0.6706,
0.6510 0.6510 0.6706,
0.6510 0.6510 0.6706,
0.6510 0.6510 0.6706,
0.6510 0.6510 0.6706,
0.6510 0.6510 0.6706,
0.6510 0.6510 0.6706,
0.6510 0.6510 0.6706,
0.6510 0.6510 0.6706,
0.6510 0.6510 0.6706,
0.6510 0.6510 0.6706,
0.6510 0.6510 0.6706,
0.6510 0.6510 0.6706,
0.6510 0.6510 0.6706,
0.6510 0.6510 0.6706,
0.6510 0.6510 0.6706,
0.6510 0.6510 0.6706,
0.6510 0.6510 0.6706,
0.6510 0.6510 0.6706,
0.6510 0.6510 0.6706,
0.6510 0.6510 0.6706,
0.6510 0.6510 0.6706,
0.6510 0.6510 0.6706,
0.6510 0.6510 0.6706,
0.6510 0.6510 0.6706,
0.6510 0.6510 0.6706,
0.6510 0.6510 0.6706,
0.6510 0.6510 0.6706,
0.6510 0.6510 0.6706,
0.6510 0.6510 0.6706,
0.6510 0.6510 0.6706,
0.6510 0.6510 0.6706,
0.6510 0.6510 0.6706,
0.6510 0.6510 0.6706,
0.6510 0.6510 0.6706,
0.6510 0.6510 0.6706,
0.6510 0.6510 0.6706,
0.6510 0.6510 0.6706,
0.6510 0.6510 0.6706,
0.6510 0.6510 0.6706,
0.6510 0.6510 0.6706,
0.6510 0.6510 0.6706,
0.6510 0.6510 0.6706,
0.6510 0.6510 0.6706,
0.6510 0.6510 0.6706,
0.6510 0.6510 0.6706,
0.6510 0.6510 0.6706,
0.6510 0.6510 0.6706,
0.6510 0.6510 0.6706,
0.6510 0.6510 0.6706,
0.6510 0.6510 0.6706,
0.6510 0.6510 0.6706,
0.6510 0.6510 0.6706,
0.6510 0.6510 0.6706,
0.6510 0.6510 0.6706,
0.6510 0.6510 0.6706,
0.6510 0.6510 0.6706,
0.6510 0.6510 0.6706,
0.6510 0.6510 0.6706,
0.6510 0.6510 0.6706,
0.6510 0.6510 0.6706,
0.6510 0.6510 0.6706,
0.6510 0.6510 0.6706,
0.6510 0.6510 0.6706,
0.6510 0.6510 0.6706,
0.6510 0.6510 0.6706,
0.6510 0.6510 0.6706,
0.6510 0.6510 0.6706,
0.6510 0.6510 0.6706,
0.6510 0.6510 0.6706,
0.6510 0.6510 0.6706,
0.6510 0.6510 0.6706,
0.6510 0.6510 0.6706,
0.6510 0.6510 0.6706,
0.6510 0.6510 0.6706,
0.6510 0.6510 0.6706,
0.6510 0.6510 0.6706,
0.6510 0.6510 0.6706,
0.6510 0.6510 0.6706,
0.6510 0.6510 0.6706,
0.6510 0.6510 0.6706,
0.6510 0.6510 0.6706,
0.6510 0.6510 0.6706,
0.6510 0.6510 0.6706,
0.6510 0.6510 0.6706,
0.6510 0.6510 0.6706,
0.6510 0.6510 0.6706,
0.6510 0.6510 0.6706,
0.6510 0.6510 0.6706,
0.6510 0.6510 0.6706,
0.6510 0.6510 0.6706,
0.6510 0.6510 0.6706,
0.6510 0.6510 0.6706,
0.6510 0.6510 0.6706,
0.6510 0.6510 0.6706,
0.6510 0.6510 0.6706,
0.6510 0.6510 0.6706,
0.6510 0.6510 0.6706,
0.6510 0.6510 0.6706,
0.6510 0.6510 0.6706,
0.6510 0.6510 0.6706,
0.6510 0.6510 0.6706,
0.6510 0.6510 0.6706,
0.6510 0.6510 0.6706,
0.6510 0.6510 0.6706,
0.6510 0.6510 0.6706,
0.6510 0.6510 0.6706,
0.6510 0.6510 0.6706,
0.6510 0.6510 0.6706,
0.6510 0.6510 0.6706,
0.6510 0.6510 0.6706,
0.6510 0.6510 0.6706,
0.6510 0.6510 0.6706,
0.6510 0.6510 0.6706,
0.6510 0.6510 0.6706,
0.6510 0.6510 0.6706,
0.6510 0.6510 0.6706,
0.6510 0.6510 0.6706,
0.6510 0.6510 0.6706,
0.6510 0.6510 0.6706,
0.6510 0.6510 0.6706,
0.6510 0.6510 0.6706,
0.6510 0.6510 0.6706,
0.6510 0.6510 0.6706,
0.6510 0.6510 0.6706,
0.6510 0.6510 0.6706,
0.6510 0.6510 0.6706,
0.6510 0.6510 0.6706,
0.6510 0.6510 0.6706,
0.6510 0.6510 0.6706,
0.6510 0.6510 0.6706,
0.6510 0.6510 0.6706,
0.6510 0.6510 0.6706,
0.6510 0.6510 0.6706,
0.6510 0.6510 0.6706,
0.6510 0.6510 0.6706,
0.6510 0.6510 0.6706,
0.6510 0.6510 0.6706,
0.6510 0.6510 0.6706,
0.6510 0.6510 0.6706,
0.6510 0.6510 0.6706,
0.6510 0.6510 0.6706,
0.6510 0.6510 0.6706,
0.6510 0.6510 0.6706,
0.6510 0.6510 0.6706,
0.6510 0.6510 0.6706,
0.6510 0.6510 0.6706,
0.6510 0.6510 0.6706,
0.6510 0.6510 0.6706,
0.6510 0.6510 0.6706,
0.6510 0.6510 0.6706,
0.6510 0.6510 0.6706,
0.6510 0.6510 0.6706,
0.6510 0.6510 0.6706,
0.6510 0.6510 0.6706,
0.6510 0.6510 0.6706,
0.6510 0.6510 0.6706,
0.6510 0.6510 0.6706,
0.6510 0.6510 0.6706,
0.6510 0.6510 0.6706,
0.6510 0.6510 0.6706,
0.6510 0.6510 0.6706,
0.6510 0.6510 0.6706,
0.6510 0.6510 0.6706,
0.6510 0.6510 0.6706,
0.6510 0.6510 0.6706,
0.6510 0.6510 0.6706,
0.6510 0.6510 0.6706,
0.6510 0.6510 0.6706,
0.6510 0.6510 0.6706,
0.6510 0.6510 0.6706,
0.6510 0.6510 0.6706,
0.6510 0.6510 0.6706,
0.6510 0.6510 0.6706,
0.6510 0.6510 0.6706,
0.6510 0.6510 0.6706,
0.6510 0.6510 0.6706,
0.6510 0.6510 0.6706,
0.6510 0.6510 0.6706,
0.6510 0.6510 0.6706,
0.6510 0.6510 0.6706,
0.6510 0.6510 0.6706,
0.6510 0.6510 0.6706,
0.6510 0.6510 0.6706,
0.6510 0.6510 0.6706,
0.6510 0.6510 0.6706,
0.6510 0.6510 0.6706,
0.6510 0.6510 0.6706,
0.6510 0.6510 0.6706,
0.6510 0.6510 0.6706,
0.6510 0.6510 0.6706,
0.6510 0.6510 0.6706,
0.6510 0.6510 0.6706,
0.6510 0.6510 0.6706,
0.6510 0.6510 0.6706,
0.6510 0.6510 0.6706,
0.6510 0.6510 0.6706,
0.6510 0.6510 0.6706,
0.6510 0.6510 0.6706,
0.6510 0.6510 0.6706,
0.6510 0.6510 0.6706,
0.6510 0.6510 0.6706,
0.6510 0.6510 0.6706,
0.6510 0.6510 0.6706,
0.6510 0.6510 0.6706,
0.6510 0.6510 0.6706,
0.6510 0.6510 0.6706,
0.6510 0.6510 0.6706,
0.6510 0.6510 0.6706,
0.6510 0.6510 0.6706,
0.6510 0.6510 0.6706,
0.6510 0.6510 0.6706,
0.6510 0.6510 0.6706,
0.6510 0.6510 0.6706,
0.6510 0.6510 0.6706,
0.6510 0.6510 0.6706,
0.6510 0.6510 0.6706,
0.6510 0.6510 0.6706,
0.6510 0.6510 0.6706,
0.6510 0.6510 0.6706,
0.6510 0.6510 0.6706,
0.6510 0.6510 0.6706,
0.6510 0.6510 0.6706,
0.6510 0.6510 0.6706,
0.6510 0.6510 0.6706,
0.6510 0.6510 0.6706,
0.6510 0.6510 0.6706,
0.6510 0.6510 0.6706,
0.6510 0.6510 0.6706,
0.6510 0.6510 0.6706,
0.6510 0.6510 0.6706,
0.6510 0.6510 0.6706,
0.6510 0.6510 0.6706,
0.6510 0.6510 0.6706,
0.6510 0.6510 0.6706,
0.6510 0.6510 0.6706,
0.6510 0.6510 0.6706,
0.6510 0.6510 0.6706,
0.6510 0.6510 0.6706,
0.6510 0.6510 0.6706,
0.6510 0.6510 0.6706,
0.6510 0.6510 0.6706,
0.6510 0.6510 0.6706,
0.6510 0.6510 0.6706,
0.6510 0.6510 0.6706,
0.6510 0.6510 0.6706,
0.6510 0.6510 0.6706,
0.6510 0.6510 0.6706,
0.6510 0.6510 0.6706,
0.6510 0.6510 0.6706,
0.6510 0.6510 0.6706,
0.6510 0.6510 0.6706,
0.6510 0.6510 0.6706,
0.6510 0.6510 0.6706,
0.6510 0.6510 0.6706,
0.6510 0.6510 0.6706,
0.6510 0.6510 0.6706,
0.6510 0.6510 0.6706,
0.6510 0.6510 0.6706,
0.6510 0.6510 0.6706,
0.6510 0.6510 0.6706,
0.6510 0.6510 0.6706,
0.6510 0.6510 0.6706,
0.6510 0.6510 0.6706,
0.6510 0.6510 0.6706,
0.6510 0.6510 0.6706,
0.6510 0.6510 0.6706,
0.6510 0.6510 0.6706,
0.6510 0.6510 0.6706,
0.6510 0.6510 0.6706,
0.6510 0.6510 0.6706,
0.6510 0.6510 0.6706,
0.6510 0.6510 0.6706,
0.6510 0.6510 0.6706,
0.6510 0.6510 0.6706,
0.6510 0.6510 0.6706,
0.6510 0.6510 0.6706,
0.6510 0.6510 0.6706,
0.6510 0.6510 0.6706,
0.6510 0.6510 0.6706,
0.6510 0.6510 0.6706,
0.6510 0.6510 0.6706,
0.6510 0.6510 0.6706,
0.6510 0.6510 0.6706,
0.6510 0.6510 0.6706,
0.6510 0.6510 0.6706,
0.6510 0.6510 0.6706,
0.6510 0.6510 0.6706,
0.6510 0.6510 0.6706,
0.6510 0.6510 0.6706,
0.6510 0.6510 0.6706,
0.6510 0.6510 0.6706,
0.6510 0.6510 0.6706,
0.6510 0.6510 0.6706,
0.6510 0.6510 0.6706,
0.6510 0.6510 0.6706,
0.6510 0.6510 0.6706,
0.6510 0.6510 0.6706,
0.6510 0.6510 0.6706,
0.6510 0.6510 0.6706,
0.6510 0.6510 0.6706,
0.6510 0.6510 0.6706,
0.6510 0.6510 0.6706,
0.6510 0.6510 0.6706,
0.6510 0.6510 0.6706,
0.6510 0.6510 0.6706,
0.6510 0.6510 0.6706,
0.6510 0.6510 0.6706,
0.6510 0.6510 0.6706,
0.6510 0.6510 0.6706,
0.6510 0.6510 0.6706,
0.6510 0.6510 0.6706,
0.6510 0.6510 0.6706,
0.6510 0.6510 0.6706,
0.6510 0.6510 0.6706,
0.6510 0.6510 0.6706,
0.6510 0.6510 0.6706,
0.6510 0.6510 0.6706,
0.6510 0.6510 0.6706,
0.6510 0.6510 0.6706,
0.6510 0.6510 0.6706,
0.6510 0.6510 0.6706,
0.6510 0.6510 0.6706,
0.6510 0.6510 0.6706,
0.6510 0.6510 0.6706,
0.6510 0.6510 0.6706,
0.6510 0.6510 0.6706,
0.6510 0.6510 0.6706,
0.6510 0.6510 0.6706,
0.6510 0.6510 0.6706,
0.6510 0.6510 0.6706,
0.6510 0.6510 0.6706,
0.6510 0.6510 0.6706,
0.6510 0.6510 0.6706,
0.6510 0.6510 0.6706,
0.6510 0.6510 0.6706,
0.6510 0.6510 0.6706,
0.6510 0.6510 0.6706,
0.6510 0.6510 0.6706,
0.6510 0.6510 0.6706,
0.6510 0.6510 0.6706,
0.6510 0.6510 0.6706,
0.6510 0.6510 0.6706,
0.6510 0.6510 0.6706,
0.6510 0.6510 0.6706,
0.6510 0.6510 0.6706,
0.6510 0.6510 0.6706,
0.6510 0.6510 0.6706,
0.6510 0.6510 0.6706,
0.6510 0.6510 0.6706,
0.6510 0.6510 0.6706,
0.6510 0.6510 0.6706,
0.6510 0.6510 0.6706,
0.6510 0.6510 0.6706,
0.6510 0.6510 0.6706,
0.6510 0.6510 0.6706,
0.6510 0.6510 0.6706,
0.6510 0.6510 0.6706,
0.6510 0.6510 0.6706,
0.6510 0.6510 0.6706,
0.6510 0.6510 0.6706,
0.6510 0.6510 0.6706,
0.6510 0.6510 0.6706,
0.6510 0.6510 0.6706,
0.6510 0.6510 0.6706,
0.6510 0.6510 0.6706,
0.6510 0.6510 0.6706,
0.6510 0.6510 0.6706,
0.6510 0.6510 0.6706,
0.6510 0.6510 0.6706,
0.6510 0.6510 0.6706,
0.6510 0.6510 0.6706,
0.6510 0.6510 0.6706,
0.6510 0.6510 0.6706,
0.6510 0.6510 0.6706,
0.6510 0.6510 0.6706,
0.6510 0.6510 0.6706,
0.6510 0.6510 0.6706,
0.6510 0.6510 0.6706,
0.6510 0.6510 0.6706,
0.6510 0.6510 0.6706,
0.6510 0.6510 0.6706,
0.6510 0.6510 0.6706,
0.6510 0.6510 0.6706,
0.6510 0.6510 0.6706,
0.6510 0.6510 0.6706,
0.6510 0.6510 0.6706,
0.6510 0.6510 0.6706,
0.6510 0.6510 0.6706,
0.6510 0.6510 0.6706,
0.6510 0.6510 0.6706,
0.6510 0.6510 0.6706,
0.6510 0.6510 0.6706,
0.6510 0.6510 0.6706,
0.6510 0.6510 0.6706,
0.6510 0.6510 0.6706,
0.6510 0.6510 0.6706,
0.6510 0.6510 0.6706,
0.6510 0.6510 0.6706,
0.6510 0.6510 0.6706,
0.6510 0.6510 0.6706,
0.6510 0.6510 0.6706,
0.6510 0.6510 0.6706,
0.6510 0.6510 0.6706,
0.6510 0.6510 0.6706,
0.6510 0.6510 0.6706,
0.6510 0.6510 0.6706,
0.6510 0.6510 0.6706,
0.6510 0.6510 0.6706,
0.6510 0.6510 0.6706,
0.6510 0.6510 0.6706,
0.6510 0.6510 0.6706,
0.6510 0.6510 0.6706,
0.6510 0.6510 0.6706,
0.6510 0.6510 0.6706,
0.6510 0.6510 0.6706,
0.6510 0.6510 0.6706,
0.6510 0.6510 0.6706,
0.6510 0.6510 0.6706,
0.6510 0.6510 0.6706,
0.6510 0.6510 0.6706,
0.6510 0.6510 0.6706,
0.6510 0.6510 0.6706,
0.6510 0.6510 0.6706,
0.6510 0.6510 0.6706,
0.6510 0.6510 0.6706,
0.6510 0.6510 0.6706,
0.6510 0.6510 0.6706,
0.6510 0.6510 0.6706,
0.6510 0.6510 0.6706,
0.6510 0.6510 0.6706,
0.6510 0.6510 0.6706,
0.6510 0.6510 0.6706,
0.6510 0.6510 0.6706,
0.6510 0.6510 0.6706,
0.6510 0.6510 0.6706,
0.6510 0.6510 0.6706,
0.6510 0.6510 0.6706,
0.6510 0.6510 0.6706,
0.6510 0.6510 0.6706,
0.6510 0.6510 0.6706,
0.6510 0.6510 0.6706,
0.6510 0.6510 0.6706,
0.6510 0.6510 0.6706,
0.6510 0.6510 0.6706,
0.6510 0.6510 0.6706,
0.6510 0.6510 0.6706,
0.6510 0.6510 0.6706,
0.6510 0.6510 0.6706,
0.6510 0.6510 0.6706,
0.6510 0.6510 0.6706,
0.6510 0.6510 0.6706,
0.6510 0.6510 0.6706,
0.6510 0.6510 0.6706,
0.6510 0.6510 0.6706,
0.6510 0.6510 0.6706,
0.6510 0.6510 0.6706,
0.6510 0.6510 0.6706,
0.6510 0.6510 0.6706,
0.6510 0.6510 0.6706,
0.6510 0.6510 0.6706,
0.6510 0.6510 0.6706,
0.6510 0.6510 0.6706,
0.6510 0.6510 0.6706,
0.6510 0.6510 0.6706,
0.6510 0.6510 0.6706,
0.6510 0.6510 0.6706,
0.6510 0.6510 0.6706,
0.6510 0.6510 0.6706,
0.6510 0.6510 0.6706,
0.6510 0.6510 0.6706,
0.6510 0.6510 0.6706,
0.6510 0.6510 0.6706,
0.6510 0.6510 0.6706,
0.6510 0.6510 0.6706,
0.6510 0.6510 0.6706,
0.6510 0.6510 0.6706,
0.6510 0.6510 0.6706,
0.6510 0.6510 0.6706,
0.6510 0.6510 0.6706,
0.6510 0.6510 0.6706,
0.6510 0.6510 0.6706,
0.6510 0.6510 0.6706,
0.6510 0.6510 0.6706,
0.6510 0.6510 0.6706,
0.6510 0.6510 0.6706,
0.6510 0.6510 0.6706,
0.6510 0.6510 0.6706,
0.6510 0.6510 0.6706,
0.6510 0.6510 0.6706,
0.6510 0.6510 0.6706,
0.6510 0.6510 0.6706,
0.6510 0.6510 0.6706,
0.6510 0.6510 0.6706,
0.6510 0.6510 0.6706,
0.6510 0.6510 0.6706,
0.6510 0.6510 0.6706,
0.6510 0.6510 0.6706,
0.6510 0.6510 0.6706,
0.6510 0.6510 0.6706,
0.6510 0.6510 0.6706,
0.6510 0.6510 0.6706,
0.6510 0.6510 0.6706,
0.6510 0.6510 0.6706,
0.6510 0.6510 0.6706,
0.6510 0.6510 0.6706,
0.6510 0.6510 0.6706,
0.6510 0.6510 0.6706,
0.6510 0.6510 0.6706,
0.6510 0.6510 0.6706,
0.6510 0.6510 0.6706,
0.6510 0.6510 0.6706,
0.6510 0.6510 0.6706,
0.6510 0.6510 0.6706,
0.6510 0.6510 0.6706,
0.6510 0.6510 0.6706,
0.6510 0.6510 0.6706,
0.6510 0.6510 0.6706,
0.6510 0.6510 0.6706,
0.6510 0.6510 0.6706,
0.6510 0.6510 0.6706,
0.6510 0.6510 0.6706,
0.6510 0.6510 0.6706,
0.6510 0.6510 0.6706,
0.6510 0.6510 0.6706,
0.6510 0.6510 0.6706,
0.6510 0.6510 0.6706,
0.6510 0.6510 0.6706,
0.6510 0.6510 0.6706,
0.6510 0.6510 0.6706,
0.6510 0.6510 0.6706,
0.6510 0.6510 0.6706,
0.6510 0.6510 0.6706,
0.6510 0.6510 0.6706,
0.6510 0.6510 0.6706,
0.6510 0.6510 0.6706,
0.6510 0.6510 0.6706,
0.6510 0.6510 0.6706,
0.6510 0.6510 0.6706,
0.6510 0.6510 0.6706,
0.6510 0.6510 0.6706,
0.6510 0.6510 0.6706,
0.6510 0.6510 0.6706,
0.6510 0.6510 0.6706,
0.6510 0.6510 0.6706,
0.6510 0.6510 0.6706,
0.6510 0.6510 0.6706,
0.6510 0.6510 0.6706,
0.6510 0.6510 0.6706,
0.6510 0.6510 0.6706,
0.6510 0.6510 0.6706,
0.6510 0.6510 0.6706,
0.6510 0.6510 0.6706,
0.6510 0.6510 0.6706,
0.6510 0.6510 0.6706,
0.6510 0.6510 0.6706,
0.6510 0.6510 0.6706,
0.6510 0.6510 0.6706,
0.6510 0.6510 0.6706,
0.6510 0.6510 0.6706,
0.6510 0.6510 0.6706,
0.6510 0.6510 0.6706,
0.6510 0.6510 0.6706,
0.6510 0.6510 0.6706,
  ] } 
  normalPerVertex TRUE
  normal Normal {
   vector [
-0.8083 -0.3887 0.4422,
-0.9163 0.3999 0.0237,
-0.8293 0.0036 -0.5587,
-0.4822 0.8565 -0.1842,
-0.8293 0.0036 -0.5587,
-0.9163 0.3999 0.0237,
-0.5527 0.4845 0.6781,
-0.4822 0.8565 -0.1842,
-0.9163 0.3999 0.0237,
-0.8083 -0.3887 0.4422,
-0.5527 0.4845 0.6781,
-0.9163 0.3999 0.0237,
-0.0559 -0.0233 0.9982,
-0.5527 0.4845 0.6781,
-0.8083 -0.3887 0.4422,
-0.2697 -0.6996 0.6617,
-0.0559 -0.0233 0.9982,
-0.8083 -0.3887 0.4422,
-0.4965 -0.8166 -0.2945,
-0.2697 -0.6996 0.6617,
-0.8083 -0.3887 0.4422,
-0.8293 0.0036 -0.5587,
-0.4965 -0.8166 -0.2945,
-0.8083 -0.3887 0.4422,
-0.5182 -0.4516 -0.7264,
-0.4965 -0.8166 -0.2945,
-0.8293 0.0036 -0.5587,
-0.1199 0.4616 -0.8789,
-0.5182 -0.4516 -0.7264,
-0.8293 0.0036 -0.5587,
-0.4822 0.8565 -0.1842,
-0.1199 0.4616 -0.8789,
-0.8293 0.0036 -0.5587,
0.3610 0.9215 -0.1436,
-0.1199 0.4616 -0.8789,
-0.4822 0.8565 -0.1842,
-0.0089 0.8321 0.5546,
0.3610 0.9215 -0.1436,
-0.4822 0.8565 -0.1842,
-0.5527 0.4845 0.6781,
-0.0089 0.8321 0.5546,
-0.4822 0.8565 -0.1842,
-0.0559 -0.0233 0.9982,
-0.0089 0.8321 0.5546,
-0.5527 0.4845 0.6781,
0.3990 0.5884 0.7033,
-0.0089 0.8321 0.5546,
-0.0559 -0.0233 0.9982,
0.3610 0.9215 -0.1436,
-0.0089 0.8321 0.5546,
0.3990 0.5884 0.7033,
0.3151 0.8502 0.4217,
0.3610 0.9215 -0.1436,
0.3990 0.5884 0.7033,
-0.0369 0.0375 0.9986,
0.3151 0.8502 0.4217,
0.3990 0.5884 0.7033,
-0.0559 -0.0233 0.9982,
-0.0369 0.0375 0.9986,
0.3990 0.5884 0.7033,
-0.1252 0.6510 0.7486,
0.3151 0.8502 0.4217,
-0.0369 0.0375 0.9986,
-0.5936 0.0743 0.8014,
-0.1252 0.6510 0.7486,
-0.0369 0.0375 0.9986,
-0.1828 0.3482 0.9194,
-0.1252 0.6510 0.7486,
-0.5936 0.0743 0.8014,
-0.4733 -0.0828 0.8770,
-0.1828 0.3482 0.9194,
-0.5936 0.0743 0.8014,
-0.7859 -0.4206 0.4533,
-0.4733 -0.0828 0.8770,
-0.5936 0.0743 0.8014,
-0.8087 -0.4457 0.3839,
-0.7859 -0.4206 0.4533,
-0.5936 0.0743 0.8014,
-0.6602 -0.7281 0.1841,
-0.8087 -0.4457 0.3839,
-0.5936 0.0743 0.8014,
-0.9183 -0.3948 0.0279,
-0.8087 -0.4457 0.3839,
-0.6602 -0.7281 0.1841,
-0.7859 -0.4206 0.4533,
-0.8087 -0.4457 0.3839,
-0.9183 -0.3948 0.0279,
-0.9023 -0.3335 0.2730,
-0.7859 -0.4206 0.4533,
-0.9183 -0.3948 0.0279,
-0.8063 -0.4846 -0.3393,
-0.9023 -0.3335 0.2730,
-0.9183 -0.3948 0.0279,
-0.7889 -0.3784 -0.4841,
-0.8063 -0.4846 -0.3393,
-0.9183 -0.3948 0.0279,
-0.4820 -0.5221 -0.7036,
-0.8063 -0.4846 -0.3393,
-0.7889 -0.3784 -0.4841,
-0.5345 -0.0573 -0.8433,
-0.4820 -0.5221 -0.7036,
-0.7889 -0.3784 -0.4841,
-0.7419 0.3548 -0.5690,
-0.5345 -0.0573 -0.8433,
-0.7889 -0.3784 -0.4841,
-0.2474 0.2207 -0.9434,
-0.7419 0.3548 -0.5690,
-0.7889 -0.3784 -0.4841,
0.1860 0.8233 -0.5363,
-0.7419 0.3548 -0.5690,
-0.2474 0.2207 -0.9434,
-0.3176 0.9477 -0.0330,
-0.7419 0.3548 -0.5690,
0.1860 0.8233 -0.5363,
-0.6352 0.3220 -0.7020,
-0.5345 -0.0573 -0.8433,
-0.7419 0.3548 -0.5690,
-0.6265 0.7530 -0.2011,
-0.6352 0.3220 -0.7020,
-0.7419 0.3548 -0.5690,
-0.3176 0.9477 -0.0330,
-0.6265 0.7530 -0.2011,
-0.7419 0.3548 -0.5690,
-0.2674 0.9262 0.2658,
-0.6265 0.7530 -0.2011,
-0.3176 0.9477 -0.0330,
-0.1825 0.9070 0.3795,
-0.2674 0.9262 0.2658,
-0.3176 0.9477 -0.0330,
-0.1121 0.8185 0.5634,
-0.2674 0.9262 0.2658,
-0.1825 0.9070 0.3795,
-0.1045 0.6718 0.7333,
-0.1121 0.8185 0.5634,
-0.1825 0.9070 0.3795,
0.1495 0.4891 0.8593,
-0.1121 0.8185 0.5634,
-0.1045 0.6718 0.7333,
-0.0240 0.2583 0.9658,
0.1495 0.4891 0.8593,
-0.1045 0.6718 0.7333,
0.1303 0.0662 0.9893,
0.1495 0.4891 0.8593,
-0.0240 0.2583 0.9658,
-0.0559 -0.1219 0.9910,
0.1303 0.0662 0.9893,
-0.0240 0.2583 0.9658,
-0.0617 -0.3815 0.9223,
0.1303 0.0662 0.9893,
-0.0559 -0.1219 0.9910,
-0.1215 -0.6348 0.7631,
-0.0617 -0.3815 0.9223,
-0.0559 -0.1219 0.9910,
-0.1090 -0.3488 0.9308,
-0.1215 -0.6348 0.7631,
-0.0559 -0.1219 0.9910,
-0.4050 -0.5300 0.7450,
-0.1215 -0.6348 0.7631,
-0.1090 -0.3488 0.9308,
-0.1552 -0.7625 0.6281,
-0.0617 -0.3815 0.9223,
-0.1215 -0.6348 0.7631,
0.0698 -0.9739 0.2160,
-0.1552 -0.7625 0.6281,
-0.1215 -0.6348 0.7631,
-0.0981 -0.9773 0.1878,
-0.1552 -0.7625 0.6281,
0.0698 -0.9739 0.2160,
-0.1028 -0.9386 -0.3293,
-0.0981 -0.9773 0.1878,
0.0698 -0.9739 0.2160,
-0.2029 -0.8432 -0.4978,
-0.1028 -0.9386 -0.3293,
0.0698 -0.9739 0.2160,
-0.3080 -0.7285 -0.6119,
-0.2029 -0.8432 -0.4978,
0.0698 -0.9739 0.2160,
-0.0483 -0.6448 -0.7629,
-0.1028 -0.9386 -0.3293,
-0.2029 -0.8432 -0.4978,
-0.1001 -0.7705 -0.6295,
-0.1028 -0.9386 -0.3293,
-0.0483 -0.6448 -0.7629,
0.0652 -0.4144 -0.9078,
-0.1001 -0.7705 -0.6295,
-0.0483 -0.6448 -0.7629,
0.3130 -0.0642 -0.9476,
0.0652 -0.4144 -0.9078,
-0.0483 -0.6448 -0.7629,
-0.0866 -0.3109 -0.9465,
0.3130 -0.0642 -0.9476,
-0.0483 -0.6448 -0.7629,
0.0064 -0.0569 -0.9984,
0.3130 -0.0642 -0.9476,
-0.0866 -0.3109 -0.9465,
0.4502 0.0190 -0.8927,
0.3130 -0.0642 -0.9476,
0.0064 -0.0569 -0.9984,
-0.1004 0.0245 -0.9946,
0.4502 0.0190 -0.8927,
0.0064 -0.0569 -0.9984,
0.1561 -0.0138 -0.9876,
0.4502 0.0190 -0.8927,
-0.1004 0.0245 -0.9946,
0.5787 -0.0378 -0.8147,
0.4502 0.0190 -0.8927,
0.1561 -0.0138 -0.9876,
0.5465 0.1938 -0.8147,
0.4502 0.0190 -0.8927,
0.5787 -0.0378 -0.8147,
0.8410 0.1558 -0.5181,
0.5465 0.1938 -0.8147,
0.5787 -0.0378 -0.8147,
0.8501 -0.1247 -0.5117,
0.8410 0.1558 -0.5181,
0.5787 -0.0378 -0.8147,
0.9449 0.2142 -0.2476,
0.8410 0.1558 -0.5181,
0.8501 -0.1247 -0.5117,
0.8370 -0.2376 -0.4929,
0.9449 0.2142 -0.2476,
0.8501 -0.1247 -0.5117,
0.5787 -0.0378 -0.8147,
0.8370 -0.2376 -0.4929,
0.8501 -0.1247 -0.5117,
0.9426 0.3332 0.0206,
0.8410 0.1558 -0.5181,
0.9449 0.2142 -0.2476,
0.3116 0.6559 0.6875,
0.9426 0.3332 0.0206,
0.9449 0.2142 -0.2476,
0.8370 -0.2376 -0.4929,
0.3116 0.6559 0.6875,
0.9449 0.2142 -0.2476,
0.0747 0.6378 0.7666,
0.9426 0.3332 0.0206,
0.3116 0.6559 0.6875,
-0.3398 0.7300 0.5930,
0.0747 0.6378 0.7666,
0.3116 0.6559 0.6875,
-0.5966 0.4551 0.6610,
-0.3398 0.7300 0.5930,
0.3116 0.6559 0.6875,
-0.7347 0.0136 0.6783,
-0.5966 0.4551 0.6610,
0.3116 0.6559 0.6875,
-0.6290 0.7255 0.2793,
-0.3398 0.7300 0.5930,
-0.5966 0.4551 0.6610,
-0.6242 0.7487 0.2233,
-0.6290 0.7255 0.2793,
-0.5966 0.4551 0.6610,
-0.6433 0.6096 -0.4631,
-0.6290 0.7255 0.2793,
-0.6242 0.7487 0.2233,
-0.3510 0.7298 -0.5867,
-0.6433 0.6096 -0.4631,
-0.6242 0.7487 0.2233,
0.6485 0.7543 -0.1025,
-0.3510 0.7298 -0.5867,
-0.6242 0.7487 0.2233,
0.3495 -0.3605 -0.8648,
-0.3510 0.7298 -0.5867,
0.6485 0.7543 -0.1025,
0.3495 -0.3605 -0.8648,
-0.6433 0.6096 -0.4631,
-0.3510 0.7298 -0.5867,
0.8187 0.2947 0.4928,
0.9426 0.3332 0.0206,
0.0747 0.6378 0.7666,
0.4087 0.2646 0.8735,
0.8187 0.2947 0.4928,
0.0747 0.6378 0.7666,
0.5516 0.2931 0.7809,
0.8187 0.2947 0.4928,
0.4087 0.2646 0.8735,
0.8811 0.4108 0.2342,
0.8187 0.2947 0.4928,
0.5516 0.2931 0.7809,
0.8020 0.3060 0.5129,
0.8811 0.4108 0.2342,
0.5516 0.2931 0.7809,
0.5524 -0.0601 0.8314,
0.8020 0.3060 0.5129,
0.5516 0.2931 0.7809,
0.2805 0.1762 0.9436,
0.5524 -0.0601 0.8314,
0.5516 0.2931 0.7809,
0.1756 -0.2759 0.9450,
0.5524 -0.0601 0.8314,
0.2805 0.1762 0.9436,
0.3694 -0.6042 0.7061,
0.5524 -0.0601 0.8314,
0.1756 -0.2759 0.9450,
0.0074 -0.7495 0.6619,
0.3694 -0.6042 0.7061,
0.1756 -0.2759 0.9450,
0.0323 -0.9563 0.2907,
0.3694 -0.6042 0.7061,
0.0074 -0.7495 0.6619,
0.1875 -0.8633 0.4686,
0.3694 -0.6042 0.7061,
0.0323 -0.9563 0.2907,
-0.0943 -0.9842 -0.1500,
0.1875 -0.8633 0.4686,
0.0323 -0.9563 0.2907,
-0.1571 -0.9558 -0.2485,
-0.0943 -0.9842 -0.1500,
0.0323 -0.9563 0.2907,
-0.0553 -0.7162 -0.6957,
-0.0943 -0.9842 -0.1500,
-0.1571 -0.9558 -0.2485,
-0.1834 -0.5435 -0.8191,
-0.0943 -0.9842 -0.1500,
-0.0553 -0.7162 -0.6957,
0.2192 0.0714 -0.9731,
-0.1834 -0.5435 -0.8191,
-0.0553 -0.7162 -0.6957,
-0.1575 -0.9136 -0.3749,
-0.0943 -0.9842 -0.1500,
-0.1834 -0.5435 -0.8191,
0.0812 0.0103 -0.9966,
-0.1575 -0.9136 -0.3749,
-0.1834 -0.5435 -0.8191,
0.2192 0.0714 -0.9731,
0.0812 0.0103 -0.9966,
-0.1834 -0.5435 -0.8191,
0.3671 0.5540 -0.7472,
0.0812 0.0103 -0.9966,
0.2192 0.0714 -0.9731,
0.5332 0.4335 -0.7265,
0.3671 0.5540 -0.7472,
0.2192 0.0714 -0.9731,
0.7939 0.5893 -0.1499,
0.3671 0.5540 -0.7472,
0.5332 0.4335 -0.7265,
0.8633 0.3828 -0.3290,
0.7939 0.5893 -0.1499,
0.5332 0.4335 -0.7265,
0.6390 0.6746 -0.3696,
0.3671 0.5540 -0.7472,
0.7939 0.5893 -0.1499,
0.0812 0.0103 -0.9966,
0.3671 0.5540 -0.7472,
0.6390 0.6746 -0.3696,
0.8485 -0.0137 -0.5290,
0.0812 0.0103 -0.9966,
0.6390 0.6746 -0.3696,
0.8582 0.5130 0.0194,
0.8485 -0.0137 -0.5290,
0.6390 0.6746 -0.3696,
0.8953 -0.2941 0.3347,
0.8485 -0.0137 -0.5290,
0.8582 0.5130 0.0194,
0.7771 0.5265 0.3447,
0.8953 -0.2941 0.3347,
0.8582 0.5130 0.0194,
0.5177 -0.3002 0.8012,
0.8953 -0.2941 0.3347,
0.7771 0.5265 0.3447,
0.5213 -0.3350 0.7849,
0.5177 -0.3002 0.8012,
0.7771 0.5265 0.3447,
0.5472 -0.8194 -0.1708,
0.8485 -0.0137 -0.5290,
0.8953 -0.2941 0.3347,
0.2137 -0.8199 0.5311,
0.5472 -0.8194 -0.1708,
0.8953 -0.2941 0.3347,
0.5177 -0.3002 0.8012,
0.2137 -0.8199 0.5311,
0.8953 -0.2941 0.3347,
0.2404 -0.4900 -0.8379,
0.8485 -0.0137 -0.5290,
0.5472 -0.8194 -0.1708,
0.0812 0.0103 -0.9966,
0.8485 -0.0137 -0.5290,
0.2404 -0.4900 -0.8379,
0.2404 -0.4900 -0.8379,
-0.1575 -0.9136 -0.3749,
0.0812 0.0103 -0.9966,
0.5472 -0.8194 -0.1708,
-0.1575 -0.9136 -0.3749,
0.2404 -0.4900 -0.8379,
0.2137 -0.8199 0.5311,
-0.1575 -0.9136 -0.3749,
0.5472 -0.8194 -0.1708,
0.1875 -0.8633 0.4686,
-0.0943 -0.9842 -0.1500,
-0.1575 -0.9136 -0.3749,
0.2137 -0.8199 0.5311,
0.1875 -0.8633 0.4686,
-0.1575 -0.9136 -0.3749,
0.3130 -0.0642 -0.9476,
0.4502 0.0190 -0.8927,
0.5465 0.1938 -0.8147,
-0.5839 -0.5411 0.6052,
-0.9023 -0.3335 0.2730,
-0.8063 -0.4846 -0.3393,
-0.0369 0.0375 0.9986,
-0.0559 -0.0233 0.9982,
-0.2697 -0.6996 0.6617,
-0.6602 -0.7281 0.1841,
-0.5936 0.0743 0.8014,
-0.0369 0.0375 0.9986,
-0.2697 -0.6996 0.6617,
-0.6602 -0.7281 0.1841,
-0.0369 0.0375 0.9986,
-0.4965 -0.8166 -0.2945,
-0.6602 -0.7281 0.1841,
-0.2697 -0.6996 0.6617,
-0.5182 -0.4516 -0.7264,
-0.6602 -0.7281 0.1841,
-0.4965 -0.8166 -0.2945,
0.2137 -0.8199 0.5311,
0.5177 -0.3002 0.8012,
0.5213 -0.3350 0.7849,
0.1875 -0.8633 0.4686,
0.2137 -0.8199 0.5311,
0.5213 -0.3350 0.7849,
0.3694 -0.6042 0.7061,
0.1875 -0.8633 0.4686,
0.5213 -0.3350 0.7849,
0.5524 -0.0601 0.8314,
0.3694 -0.6042 0.7061,
0.5213 -0.3350 0.7849,
0.8020 0.3060 0.5129,
0.5524 -0.0601 0.8314,
0.5213 -0.3350 0.7849,
0.7771 0.5265 0.3447,
0.8020 0.3060 0.5129,
0.5213 -0.3350 0.7849,
0.6390 0.6746 -0.3696,
0.7771 0.5265 0.3447,
0.8582 0.5130 0.0194,
0.7939 0.5893 -0.1499,
0.7771 0.5265 0.3447,
0.6390 0.6746 -0.3696,
0.8020 0.3060 0.5129,
0.7771 0.5265 0.3447,
0.7939 0.5893 -0.1499,
0.8811 0.4108 0.2342,
0.8020 0.3060 0.5129,
0.7939 0.5893 -0.1499,
0.8633 0.3828 -0.3290,
0.8811 0.4108 0.2342,
0.7939 0.5893 -0.1499,
0.8187 0.2947 0.4928,
0.8811 0.4108 0.2342,
0.8633 0.3828 -0.3290,
0.9426 0.3332 0.0206,
0.8187 0.2947 0.4928,
0.8633 0.3828 -0.3290,
0.8410 0.1558 -0.5181,
0.9426 0.3332 0.0206,
0.8633 0.3828 -0.3290,
0.5465 0.1938 -0.8147,
0.8410 0.1558 -0.5181,
0.8633 0.3828 -0.3290,
0.5332 0.4335 -0.7265,
0.5465 0.1938 -0.8147,
0.8633 0.3828 -0.3290,
0.2192 0.0714 -0.9731,
0.5465 0.1938 -0.8147,
0.5332 0.4335 -0.7265,
0.3130 -0.0642 -0.9476,
0.5465 0.1938 -0.8147,
0.2192 0.0714 -0.9731,
0.0652 -0.4144 -0.9078,
0.3130 -0.0642 -0.9476,
0.2192 0.0714 -0.9731,
-0.0553 -0.7162 -0.6957,
0.0652 -0.4144 -0.9078,
0.2192 0.0714 -0.9731,
-0.1001 -0.7705 -0.6295,
0.0652 -0.4144 -0.9078,
-0.0553 -0.7162 -0.6957,
-0.1571 -0.9558 -0.2485,
-0.1001 -0.7705 -0.6295,
-0.0553 -0.7162 -0.6957,
-0.1028 -0.9386 -0.3293,
-0.1001 -0.7705 -0.6295,
-0.1571 -0.9558 -0.2485,
-0.0981 -0.9773 0.1878,
-0.1028 -0.9386 -0.3293,
-0.1571 -0.9558 -0.2485,
0.0323 -0.9563 0.2907,
-0.0981 -0.9773 0.1878,
-0.1571 -0.9558 -0.2485,
0.0074 -0.7495 0.6619,
-0.0981 -0.9773 0.1878,
0.0323 -0.9563 0.2907,
-0.1552 -0.7625 0.6281,
-0.0981 -0.9773 0.1878,
0.0074 -0.7495 0.6619,
-0.0617 -0.3815 0.9223,
-0.1552 -0.7625 0.6281,
0.0074 -0.7495 0.6619,
0.1756 -0.2759 0.9450,
-0.0617 -0.3815 0.9223,
0.0074 -0.7495 0.6619,
0.1303 0.0662 0.9893,
-0.0617 -0.3815 0.9223,
0.1756 -0.2759 0.9450,
0.2805 0.1762 0.9436,
0.1303 0.0662 0.9893,
0.1756 -0.2759 0.9450,
0.1495 0.4891 0.8593,
0.1303 0.0662 0.9893,
0.2805 0.1762 0.9436,
0.5516 0.2931 0.7809,
0.1495 0.4891 0.8593,
0.2805 0.1762 0.9436,
0.4087 0.2646 0.8735,
0.1495 0.4891 0.8593,
0.5516 0.2931 0.7809,
0.0747 0.6378 0.7666,
0.1495 0.4891 0.8593,
0.4087 0.2646 0.8735,
-0.1121 0.8185 0.5634,
0.1495 0.4891 0.8593,
0.0747 0.6378 0.7666,
-0.3398 0.7300 0.5930,
-0.1121 0.8185 0.5634,
0.0747 0.6378 0.7666,
-0.2674 0.9262 0.2658,
-0.1121 0.8185 0.5634,
-0.3398 0.7300 0.5930,
-0.6290 0.7255 0.2793,
-0.2674 0.9262 0.2658,
-0.3398 0.7300 0.5930,
-0.6265 0.7530 -0.2011,
-0.2674 0.9262 0.2658,
-0.6290 0.7255 0.2793,
-0.6433 0.6096 -0.4631,
-0.6265 0.7530 -0.2011,
-0.6290 0.7255 0.2793,
0.1561 -0.0138 -0.9876,
0.8370 -0.2376 -0.4929,
0.5787 -0.0378 -0.8147,
-0.6242 0.7487 0.2233,
-0.5966 0.4551 0.6610,
-0.7347 0.0136 0.6783,
-0.2029 -0.8432 -0.4978,
-0.8063 -0.4846 -0.3393,
-0.4820 -0.5221 -0.7036,
-0.0483 -0.6448 -0.7629,
-0.2029 -0.8432 -0.4978,
-0.4820 -0.5221 -0.7036,
-0.0866 -0.3109 -0.9465,
-0.0483 -0.6448 -0.7629,
-0.4820 -0.5221 -0.7036,
-0.5345 -0.0573 -0.8433,
-0.0866 -0.3109 -0.9465,
-0.4820 -0.5221 -0.7036,
0.0064 -0.0569 -0.9984,
-0.0866 -0.3109 -0.9465,
-0.5345 -0.0573 -0.8433,
-0.1004 0.0245 -0.9946,
0.0064 -0.0569 -0.9984,
-0.5345 -0.0573 -0.8433,
-0.6352 0.3220 -0.7020,
-0.1004 0.0245 -0.9946,
-0.5345 -0.0573 -0.8433,
0.1561 -0.0138 -0.9876,
-0.1004 0.0245 -0.9946,
-0.6352 0.3220 -0.7020,
-0.6265 0.7530 -0.2011,
0.1561 -0.0138 -0.9876,
-0.6352 0.3220 -0.7020,
-0.6433 0.6096 -0.4631,
0.1561 -0.0138 -0.9876,
-0.6265 0.7530 -0.2011,
0.3495 -0.3605 -0.8648,
0.1561 -0.0138 -0.9876,
-0.6433 0.6096 -0.4631,
-0.3080 -0.7285 -0.6119,
-0.8063 -0.4846 -0.3393,
-0.2029 -0.8432 -0.4978,
0.8370 -0.2376 -0.4929,
0.3495 -0.3605 -0.8648,
0.6485 0.7543 -0.1025,
0.3116 0.6559 0.6875,
0.8370 -0.2376 -0.4929,
0.6485 0.7543 -0.1025,
-0.5839 -0.5411 0.6052,
0.0698 -0.9739 0.2160,
-0.1215 -0.6348 0.7631,
-0.4050 -0.5300 0.7450,
-0.5839 -0.5411 0.6052,
-0.1215 -0.6348 0.7631,
-0.9023 -0.3335 0.2730,
-0.5839 -0.5411 0.6052,
-0.4050 -0.5300 0.7450,
-0.7859 -0.4206 0.4533,
-0.9023 -0.3335 0.2730,
-0.4050 -0.5300 0.7450,
-0.1090 -0.3488 0.9308,
-0.7859 -0.4206 0.4533,
-0.4050 -0.5300 0.7450,
-0.4733 -0.0828 0.8770,
-0.7859 -0.4206 0.4533,
-0.1090 -0.3488 0.9308,
-0.1828 0.3482 0.9194,
-0.4733 -0.0828 0.8770,
-0.1090 -0.3488 0.9308,
-0.0559 -0.1219 0.9910,
-0.1828 0.3482 0.9194,
-0.1090 -0.3488 0.9308,
-0.0240 0.2583 0.9658,
-0.1828 0.3482 0.9194,
-0.0559 -0.1219 0.9910,
-0.1045 0.6718 0.7333,
-0.1828 0.3482 0.9194,
-0.0240 0.2583 0.9658,
-0.1252 0.6510 0.7486,
-0.1828 0.3482 0.9194,
-0.1045 0.6718 0.7333,
-0.1825 0.9070 0.3795,
-0.1252 0.6510 0.7486,
-0.1045 0.6718 0.7333,
-0.3176 0.9477 -0.0330,
-0.1252 0.6510 0.7486,
-0.1825 0.9070 0.3795,
0.3151 0.8502 0.4217,
-0.1252 0.6510 0.7486,
-0.3176 0.9477 -0.0330,
0.1860 0.8233 -0.5363,
0.3151 0.8502 0.4217,
-0.3176 0.9477 -0.0330,
0.3610 0.9215 -0.1436,
0.3151 0.8502 0.4217,
0.1860 0.8233 -0.5363,
-0.1199 0.4616 -0.8789,
0.3610 0.9215 -0.1436,
0.1860 0.8233 -0.5363,
-0.2474 0.2207 -0.9434,
-0.1199 0.4616 -0.8789,
0.1860 0.8233 -0.5363,
-0.5182 -0.4516 -0.7264,
-0.1199 0.4616 -0.8789,
-0.2474 0.2207 -0.9434,
-0.7889 -0.3784 -0.4841,
-0.5182 -0.4516 -0.7264,
-0.2474 0.2207 -0.9434,
-0.2207 -0.9710 0.0920,
0.0698 -0.9739 0.2160,
-0.5839 -0.5411 0.6052,
-0.7889 -0.3784 -0.4841,
-0.9183 -0.3948 0.0279,
-0.6602 -0.7281 0.1841,
-0.3080 -0.7285 -0.6119,
-0.5839 -0.5411 0.6052,
-0.8063 -0.4846 -0.3393,
-0.5182 -0.4516 -0.7264,
-0.7889 -0.3784 -0.4841,
-0.6602 -0.7281 0.1841,
0.3495 -0.3605 -0.8648,
0.8370 -0.2376 -0.4929,
0.1561 -0.0138 -0.9876,
0.3116 0.6559 0.6875,
-0.7347 0.0136 0.6783,
-0.6242 0.7487 0.2233,
0.6485 0.7543 -0.1025,
-0.6242 0.7487 0.2233,
0.3116 0.6559 0.6875,
-0.3080 -0.7285 -0.6119,
0.0698 -0.9739 0.2160,
-0.2207 -0.9710 0.0920,
-0.5839 -0.5411 0.6052,
-0.3080 -0.7285 -0.6119,
-0.2207 -0.9710 0.0920,
  ] }
  normalIndex [ 
0 1 2 -1,
3 4 5 -1,
6 7 8 -1,
9 10 11 -1,
12 13 14 -1,
15 16 17 -1,
18 19 20 -1,
21 22 23 -1,
24 25 26 -1,
27 28 29 -1,
30 31 32 -1,
33 34 35 -1,
36 37 38 -1,
39 40 41 -1,
42 43 44 -1,
45 46 47 -1,
48 49 50 -1,
51 52 53 -1,
54 55 56 -1,
57 58 59 -1,
60 61 62 -1,
63 64 65 -1,
66 67 68 -1,
69 70 71 -1,
72 73 74 -1,
75 76 77 -1,
78 79 80 -1,
81 82 83 -1,
84 85 86 -1,
87 88 89 -1,
90 91 92 -1,
93 94 95 -1,
96 97 98 -1,
99 100 101 -1,
102 103 104 -1,
105 106 107 -1,
108 109 110 -1,
111 112 113 -1,
114 115 116 -1,
117 118 119 -1,
120 121 122 -1,
123 124 125 -1,
126 127 128 -1,
129 130 131 -1,
132 133 134 -1,
135 136 137 -1,
138 139 140 -1,
141 142 143 -1,
144 145 146 -1,
147 148 149 -1,
150 151 152 -1,
153 154 155 -1,
156 157 158 -1,
159 160 161 -1,
162 163 164 -1,
165 166 167 -1,
168 169 170 -1,
171 172 173 -1,
174 175 176 -1,
177 178 179 -1,
180 181 182 -1,
183 184 185 -1,
186 187 188 -1,
189 190 191 -1,
192 193 194 -1,
195 196 197 -1,
198 199 200 -1,
201 202 203 -1,
204 205 206 -1,
207 208 209 -1,
210 211 212 -1,
213 214 215 -1,
216 217 218 -1,
219 220 221 -1,
222 223 224 -1,
225 226 227 -1,
228 229 230 -1,
231 232 233 -1,
234 235 236 -1,
237 238 239 -1,
240 241 242 -1,
243 244 245 -1,
246 247 248 -1,
249 250 251 -1,
252 253 254 -1,
255 256 257 -1,
258 259 260 -1,
261 262 263 -1,
264 265 266 -1,
267 268 269 -1,
270 271 272 -1,
273 274 275 -1,
276 277 278 -1,
279 280 281 -1,
282 283 284 -1,
285 286 287 -1,
288 289 290 -1,
291 292 293 -1,
294 295 296 -1,
297 298 299 -1,
300 301 302 -1,
303 304 305 -1,
306 307 308 -1,
309 310 311 -1,
312 313 314 -1,
315 316 317 -1,
318 319 320 -1,
321 322 323 -1,
324 325 326 -1,
327 328 329 -1,
330 331 332 -1,
333 334 335 -1,
336 337 338 -1,
339 340 341 -1,
342 343 344 -1,
345 346 347 -1,
348 349 350 -1,
351 352 353 -1,
354 355 356 -1,
357 358 359 -1,
360 361 362 -1,
363 364 365 -1,
366 367 368 -1,
369 370 371 -1,
372 373 374 -1,
375 376 377 -1,
378 379 380 -1,
381 382 383 -1,
384 385 386 -1,
387 388 389 -1,
390 391 392 -1,
393 394 395 -1,
396 397 398 -1,
399 400 401 -1,
402 403 404 -1,
405 406 407 -1,
408 409 410 -1,
411 412 413 -1,
414 415 416 -1,
417 418 419 -1,
420 421 422 -1,
423 424 425 -1,
426 427 428 -1,
429 430 431 -1,
432 433 434 -1,
435 436 437 -1,
438 439 440 -1,
441 442 443 -1,
444 445 446 -1,
447 448 449 -1,
450 451 452 -1,
453 454 455 -1,
456 457 458 -1,
459 460 461 -1,
462 463 464 -1,
465 466 467 -1,
468 469 470 -1,
471 472 473 -1,
474 475 476 -1,
477 478 479 -1,
480 481 482 -1,
483 484 485 -1,
486 487 488 -1,
489 490 491 -1,
492 493 494 -1,
495 496 497 -1,
498 499 500 -1,
501 502 503 -1,
504 505 506 -1,
507 508 509 -1,
510 511 512 -1,
513 514 515 -1,
516 517 518 -1,
519 520 521 -1,
522 523 524 -1,
525 526 527 -1,
528 529 530 -1,
531 532 533 -1,
534 535 536 -1,
537 538 539 -1,
540 541 542 -1,
543 544 545 -1,
546 547 548 -1,
549 550 551 -1,
552 553 554 -1,
555 556 557 -1,
558 559 560 -1,
561 562 563 -1,
564 565 566 -1,
567 568 569 -1,
570 571 572 -1,
573 574 575 -1,
576 577 578 -1,
579 580 581 -1,
582 583 584 -1,
585 586 587 -1,
588 589 590 -1,
591 592 593 -1,
594 595 596 -1,
597 598 599 -1,
600 601 602 -1,
603 604 605 -1,
606 607 608 -1,
609 610 611 -1,
612 613 614 -1,
615 616 617 -1,
618 619 620 -1,
621 622 623 -1,
624 625 626 -1,
627 628 629 -1,
630 631 632 -1,
633 634 635 -1,
636 637 638 -1,
639 640 641 -1,
642 643 644 -1,
645 646 647 -1,
648 649 650 -1,
651 652 653 -1,
654 655 656 -1,
657 658 659 -1,
660 661 662 -1,
663 664 665 -1,
666 667 668 -1,
669 670 671 -1,
 ] 
 }
}
