#VRML V2.0 utf8

Viewpoint {
 position 0 0 85.00107574
 orientation 1 0 0 0
 description "Z view"
 fieldOfView 0.800655
}
DirectionalLight {
 direction -0.348155 -0.348155   -0.870
}
NavigationInfo {
 headlight TRUE
 type "EXAMINE"
}
Shape {
 appearance Appearance {
  material Material { diffuseColor 1.0 1.0 1.0 }
 }
 geometry IndexedFaceSet {
  coord Coordinate {
   point [
1.424363 -4.249005 11.779716,
0.284387 -4.095299 11.734711,
0.361967 -4.325668 11.295189,
0.262775 -3.755592 12.477173,
0.284387 -4.095299 11.734711,
1.424363 -4.249005 11.779716,
1.158337 -3.780792 12.845772,
0.262775 -3.755592 12.477173,
1.424363 -4.249005 11.779716,
2.010946 -4.226307 12.206520,
1.158337 -3.780792 12.845772,
1.424363 -4.249005 11.779716,
2.124087 -4.073863 11.537407,
2.010946 -4.226307 12.206520,
1.424363 -4.249005 11.779716,
2.703708 -4.280018 11.886147,
2.010946 -4.226307 12.206520,
2.124087 -4.073863 11.537407,
2.342925 -4.159360 13.143555,
1.158337 -3.780792 12.845772,
2.010946 -4.226307 12.206520,
2.703708 -4.280018 11.886147,
2.342925 -4.159360 13.143555,
2.010946 -4.226307 12.206520,
3.340721 -4.619454 12.507462,
2.342925 -4.159360 13.143555,
2.703708 -4.280018 11.886147,
3.614176 -4.274502 11.291229,
3.340721 -4.619454 12.507462,
2.703708 -4.280018 11.886147,
2.735856 -3.669832 10.745438,
3.614176 -4.274502 11.291229,
2.703708 -4.280018 11.886147,
2.124087 -4.073863 11.537407,
2.735856 -3.669832 10.745438,
2.703708 -4.280018 11.886147,
1.797788 -3.450193 10.881958,
2.735856 -3.669832 10.745438,
2.124087 -4.073863 11.537407,
1.279940 -3.660447 10.783211,
1.797788 -3.450193 10.881958,
2.124087 -4.073863 11.537407,
0.505203 -3.690580 10.847855,
1.797788 -3.450193 10.881958,
1.279940 -3.660447 10.783211,
0.918951 -3.257502 11.167145,
1.797788 -3.450193 10.881958,
0.505203 -3.690580 10.847855,
2.129217 -2.576319 10.671684,
2.735856 -3.669832 10.745438,
1.797788 -3.450193 10.881958,
3.006448 -2.481740 10.227814,
2.735856 -3.669832 10.745438,
2.129217 -2.576319 10.671684,
2.488409 -1.705451 10.143135,
3.006448 -2.481740 10.227814,
2.129217 -2.576319 10.671684,
1.734860 -1.901929 11.164665,
2.488409 -1.705451 10.143135,
2.129217 -2.576319 10.671684,
1.797788 -3.450193 10.881958,
1.734860 -1.901929 11.164665,
2.129217 -2.576319 10.671684,
0.802404 -2.949512 11.761620,
1.734860 -1.901929 11.164665,
1.797788 -3.450193 10.881958,
0.918951 -3.257502 11.167145,
0.802404 -2.949512 11.761620,
1.797788 -3.450193 10.881958,
0.178308 -3.374088 11.929634,
0.802404 -2.949512 11.761620,
0.918951 -3.257502 11.167145,
0.505203 -3.690580 10.847855,
0.178308 -3.374088 11.929634,
0.918951 -3.257502 11.167145,
0.490220 -2.811165 12.291466,
0.802404 -2.949512 11.761620,
0.178308 -3.374088 11.929634,
-0.053833 -2.748237 12.849319,
0.490220 -2.811165 12.291466,
0.178308 -3.374088 11.929634,
0.764741 -2.320020 12.941399,
0.490220 -2.811165 12.291466,
-0.053833 -2.748237 12.849319,
0.307398 -2.591195 13.332520,
0.764741 -2.320020 12.941399,
-0.053833 -2.748237 12.849319,
-0.089776 -2.899641 13.344009,
0.307398 -2.591195 13.332520,
-0.053833 -2.748237 12.849319,
0.519795 -3.081006 13.672707,
0.307398 -2.591195 13.332520,
-0.089776 -2.899641 13.344009,
0.764741 -2.320020 12.941399,
0.307398 -2.591195 13.332520,
0.519795 -3.081006 13.672707,
1.109450 -2.384952 12.148865,
0.490220 -2.811165 12.291466,
0.764741 -2.320020 12.941399,
1.240233 -1.860756 12.726845,
1.109450 -2.384952 12.148865,
0.764741 -2.320020 12.941399,
1.580263 -2.367252 13.447235,
1.240233 -1.860756 12.726845,
0.764741 -2.320020 12.941399,
1.283378 -3.254979 13.605087,
1.580263 -2.367252 13.447235,
0.764741 -2.320020 12.941399,
0.519795 -3.081006 13.672707,
1.283378 -3.254979 13.605087,
0.764741 -2.320020 12.941399,
2.232263 -3.264726 13.969444,
1.580263 -2.367252 13.447235,
1.283378 -3.254979 13.605087,
2.255846 -3.847144 13.698593,
2.232263 -3.264726 13.969444,
1.283378 -3.254979 13.605087,
3.166768 -3.721508 13.861771,
2.232263 -3.264726 13.969444,
2.255846 -3.847144 13.698593,
3.000002 -2.788657 14.062599,
2.232263 -3.264726 13.969444,
3.166768 -3.721508 13.861771,
3.872547 -3.222537 14.303146,
3.000002 -2.788657 14.062599,
3.166768 -3.721508 13.861771,
4.309950 -4.310956 13.950325,
3.872547 -3.222537 14.303146,
3.166768 -3.721508 13.861771,
4.959109 -3.444339 14.250725,
3.872547 -3.222537 14.303146,
4.309950 -4.310956 13.950325,
5.183226 -3.515349 13.528290,
4.959109 -3.444339 14.250725,
4.309950 -4.310956 13.950325,
4.759873 -4.338849 13.375389,
5.183226 -3.515349 13.528290,
4.309950 -4.310956 13.950325,
4.058587 -4.611639 13.113159,
4.759873 -4.338849 13.375389,
4.309950 -4.310956 13.950325,
3.166768 -3.721508 13.861771,
4.058587 -4.611639 13.113159,
4.309950 -4.310956 13.950325,
5.442550 -3.479892 12.751488,
5.183226 -3.515349 13.528290,
4.759873 -4.338849 13.375389,
5.654688 -2.972295 12.828850,
5.183226 -3.515349 13.528290,
5.442550 -3.479892 12.751488,
5.312345 -3.648335 12.060722,
5.654688 -2.972295 12.828850,
5.442550 -3.479892 12.751488,
5.844194 -2.847523 11.815659,
5.654688 -2.972295 12.828850,
5.312345 -3.648335 12.060722,
5.234019 -3.271476 11.276222,
5.844194 -2.847523 11.815659,
5.312345 -3.648335 12.060722,
4.611627 -3.963435 11.389992,
5.234019 -3.271476 11.276222,
5.312345 -3.648335 12.060722,
4.220705 -4.668749 11.886543,
4.611627 -3.963435 11.389992,
5.312345 -3.648335 12.060722,
4.723335 -2.966815 10.599113,
5.234019 -3.271476 11.276222,
4.611627 -3.963435 11.389992,
3.815616 -3.370741 10.459038,
4.723335 -2.966815 10.599113,
4.611627 -3.963435 11.389992,
3.866538 -2.434383 10.169708,
4.723335 -2.966815 10.599113,
3.815616 -3.370741 10.459038,
4.856251 -1.811020 10.477615,
4.723335 -2.966815 10.599113,
3.866538 -2.434383 10.169708,
3.932393 -1.586098 10.012497,
4.856251 -1.811020 10.477615,
3.866538 -2.434383 10.169708,
3.208250 -1.670412 9.944618,
3.932393 -1.586098 10.012497,
3.866538 -2.434383 10.169708,
3.908635 -0.757636 9.669128,
3.932393 -1.586098 10.012497,
3.208250 -1.670412 9.944618,
4.419265 -1.307538 10.137863,
3.932393 -1.586098 10.012497,
3.908635 -0.757636 9.669128,
4.364947 -0.802328 10.150246,
4.419265 -1.307538 10.137863,
3.908635 -0.757636 9.669128,
4.820234 -0.978423 10.568535,
4.419265 -1.307538 10.137863,
4.364947 -0.802328 10.150246,
4.385143 -0.464840 10.529762,
4.820234 -0.978423 10.568535,
4.364947 -0.802328 10.150246,
4.735088 -0.666701 11.136559,
4.820234 -0.978423 10.568535,
4.385143 -0.464840 10.529762,
4.272855 -0.216614 11.336586,
4.735088 -0.666701 11.136559,
4.385143 -0.464840 10.529762,
3.890372 0.036478 10.619873,
4.272855 -0.216614 11.336586,
4.385143 -0.464840 10.529762,
4.364947 -0.802328 10.150246,
3.890372 0.036478 10.619873,
4.385143 -0.464840 10.529762,
3.673674 0.231647 11.279716,
4.272855 -0.216614 11.336586,
3.890372 0.036478 10.619873,
3.781915 -0.299551 12.275703,
4.272855 -0.216614 11.336586,
3.673674 0.231647 11.279716,
3.020499 0.282288 11.581787,
3.781915 -0.299551 12.275703,
3.673674 0.231647 11.279716,
3.890372 0.036478 10.619873,
3.020499 0.282288 11.581787,
3.673674 0.231647 11.279716,
4.571596 -0.384243 11.862854,
4.272855 -0.216614 11.336586,
3.781915 -0.299551 12.275703,
4.297838 -0.617146 12.865097,
4.571596 -0.384243 11.862854,
3.781915 -0.299551 12.275703,
3.474725 -0.614830 13.003174,
4.297838 -0.617146 12.865097,
3.781915 -0.299551 12.275703,
2.731091 -0.543376 12.678970,
3.474725 -0.614830 13.003174,
3.781915 -0.299551 12.275703,
3.020499 0.282288 11.581787,
2.731091 -0.543376 12.678970,
3.781915 -0.299551 12.275703,
2.381790 -0.024341 11.717705,
2.731091 -0.543376 12.678970,
3.020499 0.282288 11.581787,
1.902367 -0.357445 11.293861,
2.381790 -0.024341 11.717705,
3.020499 0.282288 11.581787,
2.027154 -0.513664 12.137466,
2.381790 -0.024341 11.717705,
1.902367 -0.357445 11.293861,
1.605955 -1.088048 11.497231,
2.027154 -0.513664 12.137466,
1.902367 -0.357445 11.293861,
1.771394 -0.856733 10.789879,
1.605955 -1.088048 11.497231,
1.902367 -0.357445 11.293861,
1.850559 -0.151736 10.654785,
1.771394 -0.856733 10.789879,
1.902367 -0.357445 11.293861,
2.006331 -0.876737 9.951157,
1.771394 -0.856733 10.789879,
1.850559 -0.151736 10.654785,
1.777504 0.167001 9.963043,
2.006331 -0.876737 9.951157,
1.850559 -0.151736 10.654785,
1.999032 0.630467 10.075790,
1.777504 0.167001 9.963043,
1.850559 -0.151736 10.654785,
2.103543 0.573167 9.551842,
1.777504 0.167001 9.963043,
1.999032 0.630467 10.075790,
2.527531 0.735189 9.896614,
2.103543 0.573167 9.551842,
1.999032 0.630467 10.075790,
2.954888 0.415473 9.937180,
2.527531 0.735189 9.896614,
1.999032 0.630467 10.075790,
1.545193 -1.221881 12.373596,
2.027154 -0.513664 12.137466,
1.605955 -1.088048 11.497231,
1.406282 -1.751429 11.839066,
1.545193 -1.221881 12.373596,
1.605955 -1.088048 11.497231,
2.053672 -0.868587 12.823128,
2.027154 -0.513664 12.137466,
1.545193 -1.221881 12.373596,
1.859864 -1.551245 13.109222,
2.053672 -0.868587 12.823128,
1.545193 -1.221881 12.373596,
2.556448 -1.067671 13.374840,
2.053672 -0.868587 12.823128,
1.859864 -1.551245 13.109222,
2.325285 -1.894941 13.789253,
2.556448 -1.067671 13.374840,
1.859864 -1.551245 13.109222,
3.279126 -1.447180 13.878601,
2.556448 -1.067671 13.374840,
2.325285 -1.894941 13.789253,
2.731091 -0.543376 12.678970,
2.381790 -0.024341 11.717705,
2.027154 -0.513664 12.137466,
2.053672 -0.868587 12.823128,
2.731091 -0.543376 12.678970,
2.027154 -0.513664 12.137466,
2.556448 -1.067671 13.374840,
2.731091 -0.543376 12.678970,
2.053672 -0.868587 12.823128,
3.474725 -0.614830 13.003174,
2.731091 -0.543376 12.678970,
2.556448 -1.067671 13.374840,
3.279126 -1.447180 13.878601,
3.474725 -0.614830 13.003174,
2.556448 -1.067671 13.374840,
4.236531 -1.221397 13.701988,
3.474725 -0.614830 13.003174,
3.279126 -1.447180 13.878601,
4.027866 -2.111207 14.158615,
4.236531 -1.221397 13.701988,
3.279126 -1.447180 13.878601,
4.922796 -1.909706 13.830856,
4.236531 -1.221397 13.701988,
4.027866 -2.111207 14.158615,
4.596546 -2.724399 14.193115,
4.922796 -1.909706 13.830856,
4.027866 -2.111207 14.158615,
5.155561 -2.832128 13.846016,
4.922796 -1.909706 13.830856,
4.596546 -2.724399 14.193115,
5.616593 -2.031467 13.266380,
4.922796 -1.909706 13.830856,
5.155561 -2.832128 13.846016,
5.098322 -1.131880 13.280228,
4.922796 -1.909706 13.830856,
5.616593 -2.031467 13.266380,
5.782555 -1.325232 12.523598,
5.098322 -1.131880 13.280228,
5.616593 -2.031467 13.266380,
6.010887 -2.212067 12.457092,
5.782555 -1.325232 12.523598,
5.616593 -2.031467 13.266380,
5.923221 -1.829582 11.626999,
5.782555 -1.325232 12.523598,
6.010887 -2.212067 12.457092,
5.404950 -0.929995 11.640846,
5.782555 -1.325232 12.523598,
5.923221 -1.829582 11.626999,
5.368466 -1.539651 10.955261,
5.404950 -0.929995 11.640846,
5.923221 -1.829582 11.626999,
5.466589 -2.452287 10.932907,
5.368466 -1.539651 10.955261,
5.923221 -1.829582 11.626999,
5.129152 -0.681599 12.480644,
5.782555 -1.325232 12.523598,
5.404950 -0.929995 11.640846,
5.098322 -1.131880 13.280228,
5.782555 -1.325232 12.523598,
5.129152 -0.681599 12.480644,
4.236531 -1.221397 13.701988,
4.922796 -1.909706 13.830856,
5.098322 -1.131880 13.280228,
4.297838 -0.617146 12.865097,
3.474725 -0.614830 13.003174,
4.236531 -1.221397 13.701988,
5.098322 -1.131880 13.280228,
4.297838 -0.617146 12.865097,
4.236531 -1.221397 13.701988,
5.129152 -0.681599 12.480644,
4.297838 -0.617146 12.865097,
5.098322 -1.131880 13.280228,
4.571596 -0.384243 11.862854,
4.297838 -0.617146 12.865097,
5.129152 -0.681599 12.480644,
5.404950 -0.929995 11.640846,
4.571596 -0.384243 11.862854,
5.129152 -0.681599 12.480644,
4.735088 -0.666701 11.136559,
4.272855 -0.216614 11.336586,
4.571596 -0.384243 11.862854,
5.404950 -0.929995 11.640846,
4.735088 -0.666701 11.136559,
4.571596 -0.384243 11.862854,
5.368466 -1.539651 10.955261,
4.735088 -0.666701 11.136559,
5.404950 -0.929995 11.640846,
4.820234 -0.978423 10.568535,
4.735088 -0.666701 11.136559,
5.368466 -1.539651 10.955261,
4.419265 -1.307538 10.137863,
4.856251 -1.811020 10.477615,
3.932393 -1.586098 10.012497,
4.820234 -0.978423 10.568535,
4.856251 -1.811020 10.477615,
4.419265 -1.307538 10.137863,
5.368466 -1.539651 10.955261,
4.856251 -1.811020 10.477615,
4.820234 -0.978423 10.568535,
5.466589 -2.452287 10.932907,
4.856251 -1.811020 10.477615,
5.368466 -1.539651 10.955261,
4.723335 -2.966815 10.599113,
4.856251 -1.811020 10.477615,
5.466589 -2.452287 10.932907,
5.234019 -3.271476 11.276222,
4.723335 -2.966815 10.599113,
5.466589 -2.452287 10.932907,
5.844194 -2.847523 11.815659,
5.234019 -3.271476 11.276222,
5.466589 -2.452287 10.932907,
5.923221 -1.829582 11.626999,
5.844194 -2.847523 11.815659,
5.466589 -2.452287 10.932907,
6.010887 -2.212067 12.457092,
5.844194 -2.847523 11.815659,
5.923221 -1.829582 11.626999,
5.654688 -2.972295 12.828850,
5.844194 -2.847523 11.815659,
6.010887 -2.212067 12.457092,
5.616593 -2.031467 13.266380,
5.654688 -2.972295 12.828850,
6.010887 -2.212067 12.457092,
5.155561 -2.832128 13.846016,
5.654688 -2.972295 12.828850,
5.616593 -2.031467 13.266380,
5.183226 -3.515349 13.528290,
5.654688 -2.972295 12.828850,
5.155561 -2.832128 13.846016,
4.959109 -3.444339 14.250725,
5.183226 -3.515349 13.528290,
5.155561 -2.832128 13.846016,
4.596546 -2.724399 14.193115,
4.959109 -3.444339 14.250725,
5.155561 -2.832128 13.846016,
4.386945 -3.350430 14.579880,
4.959109 -3.444339 14.250725,
4.596546 -2.724399 14.193115,
4.646160 -3.813115 14.909187,
4.959109 -3.444339 14.250725,
4.386945 -3.350430 14.579880,
0.802404 -2.949512 11.761620,
0.490220 -2.811165 12.291466,
1.109450 -2.384952 12.148865,
1.109450 -2.384952 12.148865,
1.734860 -1.901929 11.164665,
0.802404 -2.949512 11.761620,
0.413322 -3.758866 13.280716,
0.262775 -3.755592 12.477173,
1.158337 -3.780792 12.845772,
-0.072224 -3.544135 12.886292,
0.262775 -3.755592 12.477173,
0.413322 -3.758866 13.280716,
1.850559 -0.151736 10.654785,
1.902367 -0.357445 11.293861,
3.020499 0.282288 11.581787,
1.999032 0.630467 10.075790,
1.850559 -0.151736 10.654785,
3.020499 0.282288 11.581787,
2.954888 0.415473 9.937180,
1.999032 0.630467 10.075790,
3.020499 0.282288 11.581787,
3.890372 0.036478 10.619873,
2.954888 0.415473 9.937180,
3.020499 0.282288 11.581787,
2.563644 -0.972353 9.550362,
3.908635 -0.757636 9.669128,
3.208250 -1.670412 9.944618,
3.524502 -0.470132 8.989143,
3.908635 -0.757636 9.669128,
2.563644 -0.972353 9.550362,
2.770508 0.124350 8.909103,
3.524502 -0.470132 8.989143,
2.563644 -0.972353 9.550362,
3.186455 -0.238878 8.647141,
3.524502 -0.470132 8.989143,
2.770508 0.124350 8.909103,
3.890372 0.036478 10.619873,
4.364947 -0.802328 10.150246,
3.908635 -0.757636 9.669128,
4.759873 -4.338849 13.375389,
5.312345 -3.648335 12.060722,
5.442550 -3.479892 12.751488,
4.220705 -4.668749 11.886543,
5.312345 -3.648335 12.060722,
4.759873 -4.338849 13.375389,
4.915777 -5.846614 12.448044,
4.220705 -4.668749 11.886543,
4.759873 -4.338849 13.375389,
1.424363 -4.249005 11.779716,
1.279940 -3.660447 10.783211,
2.124087 -4.073863 11.537407,
0.361967 -4.325668 11.295189,
1.279940 -3.660447 10.783211,
1.424363 -4.249005 11.779716,
0.505203 -3.690580 10.847855,
1.279940 -3.660447 10.783211,
0.361967 -4.325668 11.295189,
0.284387 -4.095299 11.734711,
0.178308 -3.374088 11.929634,
0.505203 -3.690580 10.847855,
-0.072224 -3.544135 12.886292,
-0.053833 -2.748237 12.849319,
0.178308 -3.374088 11.929634,
0.262775 -3.755592 12.477173,
-0.072224 -3.544135 12.886292,
0.178308 -3.374088 11.929634,
0.284387 -4.095299 11.734711,
0.262775 -3.755592 12.477173,
0.178308 -3.374088 11.929634,
-0.089776 -2.899641 13.344009,
-0.053833 -2.748237 12.849319,
-0.072224 -3.544135 12.886292,
4.220705 -4.668749 11.886543,
3.340721 -4.619454 12.507462,
3.614176 -4.274502 11.291229,
4.611627 -3.963435 11.389992,
4.220705 -4.668749 11.886543,
3.614176 -4.274502 11.291229,
3.815616 -3.370741 10.459038,
4.611627 -3.963435 11.389992,
3.614176 -4.274502 11.291229,
2.735856 -3.669832 10.745438,
3.815616 -3.370741 10.459038,
3.614176 -4.274502 11.291229,
3.006448 -2.481740 10.227814,
3.815616 -3.370741 10.459038,
2.735856 -3.669832 10.745438,
3.866538 -2.434383 10.169708,
3.815616 -3.370741 10.459038,
3.006448 -2.481740 10.227814,
3.208250 -1.670412 9.944618,
3.866538 -2.434383 10.169708,
3.006448 -2.481740 10.227814,
2.488409 -1.705451 10.143135,
3.208250 -1.670412 9.944618,
3.006448 -2.481740 10.227814,
2.563644 -0.972353 9.550362,
3.208250 -1.670412 9.944618,
2.488409 -1.705451 10.143135,
3.166768 -3.721508 13.861771,
2.342925 -4.159360 13.143555,
3.340721 -4.619454 12.507462,
4.058587 -4.611639 13.113159,
3.166768 -3.721508 13.861771,
3.340721 -4.619454 12.507462,
4.092797 -5.245746 12.489212,
4.058587 -4.611639 13.113159,
3.340721 -4.619454 12.507462,
4.457831 -5.959615 12.661201,
4.058587 -4.611639 13.113159,
4.092797 -5.245746 12.489212,
2.255846 -3.847144 13.698593,
2.342925 -4.159360 13.143555,
3.166768 -3.721508 13.861771,
1.734860 -1.901929 11.164665,
1.605955 -1.088048 11.497231,
1.771394 -0.856733 10.789879,
2.488409 -1.705451 10.143135,
1.734860 -1.901929 11.164665,
1.771394 -0.856733 10.789879,
2.006331 -0.876737 9.951157,
2.488409 -1.705451 10.143135,
1.771394 -0.856733 10.789879,
2.563644 -0.972353 9.550362,
2.488409 -1.705451 10.143135,
2.006331 -0.876737 9.951157,
1.777504 0.167001 9.963043,
2.563644 -0.972353 9.550362,
2.006331 -0.876737 9.951157,
2.770508 0.124350 8.909103,
2.563644 -0.972353 9.550362,
1.777504 0.167001 9.963043,
2.103543 0.573167 9.551842,
2.770508 0.124350 8.909103,
1.777504 0.167001 9.963043,
1.406282 -1.751429 11.839066,
1.605955 -1.088048 11.497231,
1.734860 -1.901929 11.164665,
1.109450 -2.384952 12.148865,
1.406282 -1.751429 11.839066,
1.734860 -1.901929 11.164665,
1.240233 -1.860756 12.726845,
1.406282 -1.751429 11.839066,
1.109450 -2.384952 12.148865,
1.545193 -1.221881 12.373596,
1.406282 -1.751429 11.839066,
1.240233 -1.860756 12.726845,
1.859864 -1.551245 13.109222,
1.545193 -1.221881 12.373596,
1.240233 -1.860756 12.726845,
1.580263 -2.367252 13.447235,
1.859864 -1.551245 13.109222,
1.240233 -1.860756 12.726845,
2.325285 -1.894941 13.789253,
1.859864 -1.551245 13.109222,
1.580263 -2.367252 13.447235,
2.232263 -3.264726 13.969444,
2.325285 -1.894941 13.789253,
1.580263 -2.367252 13.447235,
3.000002 -2.788657 14.062599,
2.325285 -1.894941 13.789253,
2.232263 -3.264726 13.969444,
3.279126 -1.447180 13.878601,
2.325285 -1.894941 13.789253,
3.000002 -2.788657 14.062599,
4.027866 -2.111207 14.158615,
3.279126 -1.447180 13.878601,
3.000002 -2.788657 14.062599,
3.872547 -3.222537 14.303146,
4.027866 -2.111207 14.158615,
3.000002 -2.788657 14.062599,
4.596546 -2.724399 14.193115,
4.027866 -2.111207 14.158615,
3.872547 -3.222537 14.303146,
4.386945 -3.350430 14.579880,
4.596546 -2.724399 14.193115,
3.872547 -3.222537 14.303146,
3.908635 -0.757636 9.669128,
2.954888 0.415473 9.937180,
3.890372 0.036478 10.619873,
0.413322 -3.758866 13.280716,
0.519795 -3.081006 13.672707,
-0.089776 -2.899641 13.344009,
-0.072224 -3.544135 12.886292,
0.413322 -3.758866 13.280716,
-0.089776 -2.899641 13.344009,
1.283378 -3.254979 13.605087,
0.519795 -3.081006 13.672707,
0.413322 -3.758866 13.280716,
1.158337 -3.780792 12.845772,
1.283378 -3.254979 13.605087,
0.413322 -3.758866 13.280716,
2.255846 -3.847144 13.698593,
1.283378 -3.254979 13.605087,
1.158337 -3.780792 12.845772,
2.342925 -4.159360 13.143555,
2.255846 -3.847144 13.698593,
1.158337 -3.780792 12.845772,
3.872547 -3.222537 14.303146,
4.646160 -3.813115 14.909187,
4.386945 -3.350430 14.579880,
4.220705 -4.668749 11.886543,
4.092797 -5.245746 12.489212,
3.340721 -4.619454 12.507462,
4.646160 -3.813115 14.909187,
4.959109 -3.444339 14.250725,
3.872547 -3.222537 14.303146,
0.505203 -3.690580 10.847855,
0.361967 -4.325668 11.295189,
0.284387 -4.095299 11.734711,
2.103543 0.573167 9.551842,
2.527531 0.735189 9.896614,
2.954888 0.415473 9.937180,
2.770508 0.124350 8.909103,
2.103543 0.573167 9.551842,
2.954888 0.415473 9.937180,
3.908635 -0.757636 9.669128,
3.186455 -0.238878 8.647141,
3.524502 -0.470132 8.989143,
2.954888 0.415473 9.937180,
3.908635 -0.757636 9.669128,
3.186455 -0.238878 8.647141,
2.770508 0.124350 8.909103,
2.954888 0.415473 9.937180,
3.186455 -0.238878 8.647141,
4.092797 -5.245746 12.489212,
4.220705 -4.668749 11.886543,
4.915777 -5.846614 12.448044,
4.457831 -5.959615 12.661201,
4.092797 -5.245746 12.489212,
4.915777 -5.846614 12.448044,
4.058587 -4.611639 13.113159,
4.457831 -5.959615 12.661201,
4.915777 -5.846614 12.448044,
4.759873 -4.338849 13.375389,
4.058587 -4.611639 13.113159,
4.915777 -5.846614 12.448044,
   ]
  }
  coordIndex [
0 1 2 -1,
3 4 5 -1,
6 7 8 -1,
9 10 11 -1,
12 13 14 -1,
15 16 17 -1,
18 19 20 -1,
21 22 23 -1,
24 25 26 -1,
27 28 29 -1,
30 31 32 -1,
33 34 35 -1,
36 37 38 -1,
39 40 41 -1,
42 43 44 -1,
45 46 47 -1,
48 49 50 -1,
51 52 53 -1,
54 55 56 -1,
57 58 59 -1,
60 61 62 -1,
63 64 65 -1,
66 67 68 -1,
69 70 71 -1,
72 73 74 -1,
75 76 77 -1,
78 79 80 -1,
81 82 83 -1,
84 85 86 -1,
87 88 89 -1,
90 91 92 -1,
93 94 95 -1,
96 97 98 -1,
99 100 101 -1,
102 103 104 -1,
105 106 107 -1,
108 109 110 -1,
111 112 113 -1,
114 115 116 -1,
117 118 119 -1,
120 121 122 -1,
123 124 125 -1,
126 127 128 -1,
129 130 131 -1,
132 133 134 -1,
135 136 137 -1,
138 139 140 -1,
141 142 143 -1,
144 145 146 -1,
147 148 149 -1,
150 151 152 -1,
153 154 155 -1,
156 157 158 -1,
159 160 161 -1,
162 163 164 -1,
165 166 167 -1,
168 169 170 -1,
171 172 173 -1,
174 175 176 -1,
177 178 179 -1,
180 181 182 -1,
183 184 185 -1,
186 187 188 -1,
189 190 191 -1,
192 193 194 -1,
195 196 197 -1,
198 199 200 -1,
201 202 203 -1,
204 205 206 -1,
207 208 209 -1,
210 211 212 -1,
213 214 215 -1,
216 217 218 -1,
219 220 221 -1,
222 223 224 -1,
225 226 227 -1,
228 229 230 -1,
231 232 233 -1,
234 235 236 -1,
237 238 239 -1,
240 241 242 -1,
243 244 245 -1,
246 247 248 -1,
249 250 251 -1,
252 253 254 -1,
255 256 257 -1,
258 259 260 -1,
261 262 263 -1,
264 265 266 -1,
267 268 269 -1,
270 271 272 -1,
273 274 275 -1,
276 277 278 -1,
279 280 281 -1,
282 283 284 -1,
285 286 287 -1,
288 289 290 -1,
291 292 293 -1,
294 295 296 -1,
297 298 299 -1,
300 301 302 -1,
303 304 305 -1,
306 307 308 -1,
309 310 311 -1,
312 313 314 -1,
315 316 317 -1,
318 319 320 -1,
321 322 323 -1,
324 325 326 -1,
327 328 329 -1,
330 331 332 -1,
333 334 335 -1,
336 337 338 -1,
339 340 341 -1,
342 343 344 -1,
345 346 347 -1,
348 349 350 -1,
351 352 353 -1,
354 355 356 -1,
357 358 359 -1,
360 361 362 -1,
363 364 365 -1,
366 367 368 -1,
369 370 371 -1,
372 373 374 -1,
375 376 377 -1,
378 379 380 -1,
381 382 383 -1,
384 385 386 -1,
387 388 389 -1,
390 391 392 -1,
393 394 395 -1,
396 397 398 -1,
399 400 401 -1,
402 403 404 -1,
405 406 407 -1,
408 409 410 -1,
411 412 413 -1,
414 415 416 -1,
417 418 419 -1,
420 421 422 -1,
423 424 425 -1,
426 427 428 -1,
429 430 431 -1,
432 433 434 -1,
435 436 437 -1,
438 439 440 -1,
441 442 443 -1,
444 445 446 -1,
447 448 449 -1,
450 451 452 -1,
453 454 455 -1,
456 457 458 -1,
459 460 461 -1,
462 463 464 -1,
465 466 467 -1,
468 469 470 -1,
471 472 473 -1,
474 475 476 -1,
477 478 479 -1,
480 481 482 -1,
483 484 485 -1,
486 487 488 -1,
489 490 491 -1,
492 493 494 -1,
495 496 497 -1,
498 499 500 -1,
501 502 503 -1,
504 505 506 -1,
507 508 509 -1,
510 511 512 -1,
513 514 515 -1,
516 517 518 -1,
519 520 521 -1,
522 523 524 -1,
525 526 527 -1,
528 529 530 -1,
531 532 533 -1,
534 535 536 -1,
537 538 539 -1,
540 541 542 -1,
543 544 545 -1,
546 547 548 -1,
549 550 551 -1,
552 553 554 -1,
555 556 557 -1,
558 559 560 -1,
561 562 563 -1,
564 565 566 -1,
567 568 569 -1,
570 571 572 -1,
573 574 575 -1,
576 577 578 -1,
579 580 581 -1,
582 583 584 -1,
585 586 587 -1,
588 589 590 -1,
591 592 593 -1,
594 595 596 -1,
597 598 599 -1,
600 601 602 -1,
603 604 605 -1,
606 607 608 -1,
609 610 611 -1,
612 613 614 -1,
615 616 617 -1,
618 619 620 -1,
621 622 623 -1,
624 625 626 -1,
627 628 629 -1,
630 631 632 -1,
633 634 635 -1,
636 637 638 -1,
639 640 641 -1,
642 643 644 -1,
645 646 647 -1,
648 649 650 -1,
651 652 653 -1,
654 655 656 -1,
657 658 659 -1,
660 661 662 -1,
663 664 665 -1,
666 667 668 -1,
669 670 671 -1,
  ]
  colorPerVertex TRUE
  color Color {
   color [
0.6510 0.6510 0.6706,
0.6510 0.6510 0.6706,
0.6510 0.6510 0.6706,
0.6510 0.6510 0.6706,
0.6510 0.6510 0.6706,
0.6510 0.6510 0.6706,
0.6510 0.6510 0.6706,
0.6510 0.6510 0.6706,
0.6510 0.6510 0.6706,
0.6510 0.6510 0.6706,
0.6510 0.6510 0.6706,
0.6510 0.6510 0.6706,
0.6510 0.6510 0.6706,
0.6510 0.6510 0.6706,
0.6510 0.6510 0.6706,
0.6510 0.6510 0.6706,
0.6510 0.6510 0.6706,
0.6510 0.6510 0.6706,
0.6510 0.6510 0.6706,
0.6510 0.6510 0.6706,
0.6510 0.6510 0.6706,
0.6510 0.6510 0.6706,
0.6510 0.6510 0.6706,
0.6510 0.6510 0.6706,
0.6510 0.6510 0.6706,
0.6510 0.6510 0.6706,
0.6510 0.6510 0.6706,
0.6510 0.6510 0.6706,
0.6510 0.6510 0.6706,
0.6510 0.6510 0.6706,
0.6510 0.6510 0.6706,
0.6510 0.6510 0.6706,
0.6510 0.6510 0.6706,
0.6510 0.6510 0.6706,
0.6510 0.6510 0.6706,
0.6510 0.6510 0.6706,
0.6510 0.6510 0.6706,
0.6510 0.6510 0.6706,
0.6510 0.6510 0.6706,
0.6510 0.6510 0.6706,
0.6510 0.6510 0.6706,
0.6510 0.6510 0.6706,
0.6510 0.6510 0.6706,
0.6510 0.6510 0.6706,
0.6510 0.6510 0.6706,
0.6510 0.6510 0.6706,
0.6510 0.6510 0.6706,
0.6510 0.6510 0.6706,
0.6510 0.6510 0.6706,
0.6510 0.6510 0.6706,
0.6510 0.6510 0.6706,
0.6510 0.6510 0.6706,
0.6510 0.6510 0.6706,
0.6510 0.6510 0.6706,
0.6510 0.6510 0.6706,
0.6510 0.6510 0.6706,
0.6510 0.6510 0.6706,
0.6510 0.6510 0.6706,
0.6510 0.6510 0.6706,
0.6510 0.6510 0.6706,
0.6510 0.6510 0.6706,
0.6510 0.6510 0.6706,
0.6510 0.6510 0.6706,
0.6510 0.6510 0.6706,
0.6510 0.6510 0.6706,
0.6510 0.6510 0.6706,
0.6510 0.6510 0.6706,
0.6510 0.6510 0.6706,
0.6510 0.6510 0.6706,
0.6510 0.6510 0.6706,
0.6510 0.6510 0.6706,
0.6510 0.6510 0.6706,
0.6510 0.6510 0.6706,
0.6510 0.6510 0.6706,
0.6510 0.6510 0.6706,
0.6510 0.6510 0.6706,
0.6510 0.6510 0.6706,
0.6510 0.6510 0.6706,
0.6510 0.6510 0.6706,
0.6510 0.6510 0.6706,
0.6510 0.6510 0.6706,
0.6510 0.6510 0.6706,
0.6510 0.6510 0.6706,
0.6510 0.6510 0.6706,
0.6510 0.6510 0.6706,
0.6510 0.6510 0.6706,
0.6510 0.6510 0.6706,
0.6510 0.6510 0.6706,
0.6510 0.6510 0.6706,
0.6510 0.6510 0.6706,
0.6510 0.6510 0.6706,
0.6510 0.6510 0.6706,
0.6510 0.6510 0.6706,
0.6510 0.6510 0.6706,
0.6510 0.6510 0.6706,
0.6510 0.6510 0.6706,
0.6510 0.6510 0.6706,
0.6510 0.6510 0.6706,
0.6510 0.6510 0.6706,
0.6510 0.6510 0.6706,
0.6510 0.6510 0.6706,
0.6510 0.6510 0.6706,
0.6510 0.6510 0.6706,
0.6510 0.6510 0.6706,
0.6510 0.6510 0.6706,
0.6510 0.6510 0.6706,
0.6510 0.6510 0.6706,
0.6510 0.6510 0.6706,
0.6510 0.6510 0.6706,
0.6510 0.6510 0.6706,
0.6510 0.6510 0.6706,
0.6510 0.6510 0.6706,
0.6510 0.6510 0.6706,
0.6510 0.6510 0.6706,
0.6510 0.6510 0.6706,
0.6510 0.6510 0.6706,
0.6510 0.6510 0.6706,
0.6510 0.6510 0.6706,
0.6510 0.6510 0.6706,
0.6510 0.6510 0.6706,
0.6510 0.6510 0.6706,
0.6510 0.6510 0.6706,
0.6510 0.6510 0.6706,
0.6510 0.6510 0.6706,
0.6510 0.6510 0.6706,
0.6510 0.6510 0.6706,
0.6510 0.6510 0.6706,
0.6510 0.6510 0.6706,
0.6510 0.6510 0.6706,
0.6510 0.6510 0.6706,
0.6510 0.6510 0.6706,
0.6510 0.6510 0.6706,
0.6510 0.6510 0.6706,
0.6510 0.6510 0.6706,
0.6510 0.6510 0.6706,
0.6510 0.6510 0.6706,
0.6510 0.6510 0.6706,
0.6510 0.6510 0.6706,
0.6510 0.6510 0.6706,
0.6510 0.6510 0.6706,
0.6510 0.6510 0.6706,
0.6510 0.6510 0.6706,
0.6510 0.6510 0.6706,
0.6510 0.6510 0.6706,
0.6510 0.6510 0.6706,
0.6510 0.6510 0.6706,
0.6510 0.6510 0.6706,
0.6510 0.6510 0.6706,
0.6510 0.6510 0.6706,
0.6510 0.6510 0.6706,
0.6510 0.6510 0.6706,
0.6510 0.6510 0.6706,
0.6510 0.6510 0.6706,
0.6510 0.6510 0.6706,
0.6510 0.6510 0.6706,
0.6510 0.6510 0.6706,
0.6510 0.6510 0.6706,
0.6510 0.6510 0.6706,
0.6510 0.6510 0.6706,
0.6510 0.6510 0.6706,
0.6510 0.6510 0.6706,
0.6510 0.6510 0.6706,
0.6510 0.6510 0.6706,
0.6510 0.6510 0.6706,
0.6510 0.6510 0.6706,
0.6510 0.6510 0.6706,
0.6510 0.6510 0.6706,
0.6510 0.6510 0.6706,
0.6510 0.6510 0.6706,
0.6510 0.6510 0.6706,
0.6510 0.6510 0.6706,
0.6510 0.6510 0.6706,
0.6510 0.6510 0.6706,
0.6510 0.6510 0.6706,
0.6510 0.6510 0.6706,
0.6510 0.6510 0.6706,
0.6510 0.6510 0.6706,
0.6510 0.6510 0.6706,
0.6510 0.6510 0.6706,
0.6510 0.6510 0.6706,
0.6510 0.6510 0.6706,
0.6510 0.6510 0.6706,
0.6510 0.6510 0.6706,
0.6510 0.6510 0.6706,
0.6510 0.6510 0.6706,
0.6510 0.6510 0.6706,
0.6510 0.6510 0.6706,
0.6510 0.6510 0.6706,
0.6510 0.6510 0.6706,
0.6510 0.6510 0.6706,
0.6510 0.6510 0.6706,
0.6510 0.6510 0.6706,
0.6510 0.6510 0.6706,
0.6510 0.6510 0.6706,
0.6510 0.6510 0.6706,
0.6510 0.6510 0.6706,
0.6510 0.6510 0.6706,
0.6510 0.6510 0.6706,
0.6510 0.6510 0.6706,
0.6510 0.6510 0.6706,
0.6510 0.6510 0.6706,
0.6510 0.6510 0.6706,
0.6510 0.6510 0.6706,
0.6510 0.6510 0.6706,
0.6510 0.6510 0.6706,
0.6510 0.6510 0.6706,
0.6510 0.6510 0.6706,
0.6510 0.6510 0.6706,
0.6510 0.6510 0.6706,
0.6510 0.6510 0.6706,
0.6510 0.6510 0.6706,
0.6510 0.6510 0.6706,
0.6510 0.6510 0.6706,
0.6510 0.6510 0.6706,
0.6510 0.6510 0.6706,
0.6510 0.6510 0.6706,
0.6510 0.6510 0.6706,
0.6510 0.6510 0.6706,
0.6510 0.6510 0.6706,
0.6510 0.6510 0.6706,
0.6510 0.6510 0.6706,
0.6510 0.6510 0.6706,
0.6510 0.6510 0.6706,
0.6510 0.6510 0.6706,
0.6510 0.6510 0.6706,
0.6510 0.6510 0.6706,
0.6510 0.6510 0.6706,
0.6510 0.6510 0.6706,
0.6510 0.6510 0.6706,
0.6510 0.6510 0.6706,
0.6510 0.6510 0.6706,
0.6510 0.6510 0.6706,
0.6510 0.6510 0.6706,
0.6510 0.6510 0.6706,
0.6510 0.6510 0.6706,
0.6510 0.6510 0.6706,
0.6510 0.6510 0.6706,
0.6510 0.6510 0.6706,
0.6510 0.6510 0.6706,
0.6510 0.6510 0.6706,
0.6510 0.6510 0.6706,
0.6510 0.6510 0.6706,
0.6510 0.6510 0.6706,
0.6510 0.6510 0.6706,
0.6510 0.6510 0.6706,
0.6510 0.6510 0.6706,
0.6510 0.6510 0.6706,
0.6510 0.6510 0.6706,
0.6510 0.6510 0.6706,
0.6510 0.6510 0.6706,
0.6510 0.6510 0.6706,
0.6510 0.6510 0.6706,
0.6510 0.6510 0.6706,
0.6510 0.6510 0.6706,
0.6510 0.6510 0.6706,
0.6510 0.6510 0.6706,
0.6510 0.6510 0.6706,
0.6510 0.6510 0.6706,
0.6510 0.6510 0.6706,
0.6510 0.6510 0.6706,
0.6510 0.6510 0.6706,
0.6510 0.6510 0.6706,
0.6510 0.6510 0.6706,
0.6510 0.6510 0.6706,
0.6510 0.6510 0.6706,
0.6510 0.6510 0.6706,
0.6510 0.6510 0.6706,
0.6510 0.6510 0.6706,
0.6510 0.6510 0.6706,
0.6510 0.6510 0.6706,
0.6510 0.6510 0.6706,
0.6510 0.6510 0.6706,
0.6510 0.6510 0.6706,
0.6510 0.6510 0.6706,
0.6510 0.6510 0.6706,
0.6510 0.6510 0.6706,
0.6510 0.6510 0.6706,
0.6510 0.6510 0.6706,
0.6510 0.6510 0.6706,
0.6510 0.6510 0.6706,
0.6510 0.6510 0.6706,
0.6510 0.6510 0.6706,
0.6510 0.6510 0.6706,
0.6510 0.6510 0.6706,
0.6510 0.6510 0.6706,
0.6510 0.6510 0.6706,
0.6510 0.6510 0.6706,
0.6510 0.6510 0.6706,
0.6510 0.6510 0.6706,
0.6510 0.6510 0.6706,
0.6510 0.6510 0.6706,
0.6510 0.6510 0.6706,
0.6510 0.6510 0.6706,
0.6510 0.6510 0.6706,
0.6510 0.6510 0.6706,
0.6510 0.6510 0.6706,
0.6510 0.6510 0.6706,
0.6510 0.6510 0.6706,
0.6510 0.6510 0.6706,
0.6510 0.6510 0.6706,
0.6510 0.6510 0.6706,
0.6510 0.6510 0.6706,
0.6510 0.6510 0.6706,
0.6510 0.6510 0.6706,
0.6510 0.6510 0.6706,
0.6510 0.6510 0.6706,
0.6510 0.6510 0.6706,
0.6510 0.6510 0.6706,
0.6510 0.6510 0.6706,
0.6510 0.6510 0.6706,
0.6510 0.6510 0.6706,
0.6510 0.6510 0.6706,
0.6510 0.6510 0.6706,
0.6510 0.6510 0.6706,
0.6510 0.6510 0.6706,
0.6510 0.6510 0.6706,
0.6510 0.6510 0.6706,
0.6510 0.6510 0.6706,
0.6510 0.6510 0.6706,
0.6510 0.6510 0.6706,
0.6510 0.6510 0.6706,
0.6510 0.6510 0.6706,
0.6510 0.6510 0.6706,
0.6510 0.6510 0.6706,
0.6510 0.6510 0.6706,
0.6510 0.6510 0.6706,
0.6510 0.6510 0.6706,
0.6510 0.6510 0.6706,
0.6510 0.6510 0.6706,
0.6510 0.6510 0.6706,
0.6510 0.6510 0.6706,
0.6510 0.6510 0.6706,
0.6510 0.6510 0.6706,
0.6510 0.6510 0.6706,
0.6510 0.6510 0.6706,
0.6510 0.6510 0.6706,
0.6510 0.6510 0.6706,
0.6510 0.6510 0.6706,
0.6510 0.6510 0.6706,
0.6510 0.6510 0.6706,
0.6510 0.6510 0.6706,
0.6510 0.6510 0.6706,
0.6510 0.6510 0.6706,
0.6510 0.6510 0.6706,
0.6510 0.6510 0.6706,
0.6510 0.6510 0.6706,
0.6510 0.6510 0.6706,
0.6510 0.6510 0.6706,
0.6510 0.6510 0.6706,
0.6510 0.6510 0.6706,
0.6510 0.6510 0.6706,
0.6510 0.6510 0.6706,
0.6510 0.6510 0.6706,
0.6510 0.6510 0.6706,
0.6510 0.6510 0.6706,
0.6510 0.6510 0.6706,
0.6510 0.6510 0.6706,
0.6510 0.6510 0.6706,
0.6510 0.6510 0.6706,
0.6510 0.6510 0.6706,
0.6510 0.6510 0.6706,
0.6510 0.6510 0.6706,
0.6510 0.6510 0.6706,
0.6510 0.6510 0.6706,
0.6510 0.6510 0.6706,
0.6510 0.6510 0.6706,
0.6510 0.6510 0.6706,
0.6510 0.6510 0.6706,
0.6510 0.6510 0.6706,
0.6510 0.6510 0.6706,
0.6510 0.6510 0.6706,
0.6510 0.6510 0.6706,
0.6510 0.6510 0.6706,
0.6510 0.6510 0.6706,
0.6510 0.6510 0.6706,
0.6510 0.6510 0.6706,
0.6510 0.6510 0.6706,
0.6510 0.6510 0.6706,
0.6510 0.6510 0.6706,
0.6510 0.6510 0.6706,
0.6510 0.6510 0.6706,
0.6510 0.6510 0.6706,
0.6510 0.6510 0.6706,
0.6510 0.6510 0.6706,
0.6510 0.6510 0.6706,
0.6510 0.6510 0.6706,
0.6510 0.6510 0.6706,
0.6510 0.6510 0.6706,
0.6510 0.6510 0.6706,
0.6510 0.6510 0.6706,
0.6510 0.6510 0.6706,
0.6510 0.6510 0.6706,
0.6510 0.6510 0.6706,
0.6510 0.6510 0.6706,
0.6510 0.6510 0.6706,
0.6510 0.6510 0.6706,
0.6510 0.6510 0.6706,
0.6510 0.6510 0.6706,
0.6510 0.6510 0.6706,
0.6510 0.6510 0.6706,
0.6510 0.6510 0.6706,
0.6510 0.6510 0.6706,
0.6510 0.6510 0.6706,
0.6510 0.6510 0.6706,
0.6510 0.6510 0.6706,
0.6510 0.6510 0.6706,
0.6510 0.6510 0.6706,
0.6510 0.6510 0.6706,
0.6510 0.6510 0.6706,
0.6510 0.6510 0.6706,
0.6510 0.6510 0.6706,
0.6510 0.6510 0.6706,
0.6510 0.6510 0.6706,
0.6510 0.6510 0.6706,
0.6510 0.6510 0.6706,
0.6510 0.6510 0.6706,
0.6510 0.6510 0.6706,
0.6510 0.6510 0.6706,
0.6510 0.6510 0.6706,
0.6510 0.6510 0.6706,
0.6510 0.6510 0.6706,
0.6510 0.6510 0.6706,
0.6510 0.6510 0.6706,
0.6510 0.6510 0.6706,
0.6510 0.6510 0.6706,
0.6510 0.6510 0.6706,
0.6510 0.6510 0.6706,
0.6510 0.6510 0.6706,
0.6510 0.6510 0.6706,
0.6510 0.6510 0.6706,
0.6510 0.6510 0.6706,
0.6510 0.6510 0.6706,
0.6510 0.6510 0.6706,
0.6510 0.6510 0.6706,
0.6510 0.6510 0.6706,
0.6510 0.6510 0.6706,
0.6510 0.6510 0.6706,
0.6510 0.6510 0.6706,
0.6510 0.6510 0.6706,
0.6510 0.6510 0.6706,
0.6510 0.6510 0.6706,
0.6510 0.6510 0.6706,
0.6510 0.6510 0.6706,
0.6510 0.6510 0.6706,
0.6510 0.6510 0.6706,
0.6510 0.6510 0.6706,
0.6510 0.6510 0.6706,
0.6510 0.6510 0.6706,
0.6510 0.6510 0.6706,
0.6510 0.6510 0.6706,
0.6510 0.6510 0.6706,
0.6510 0.6510 0.6706,
0.6510 0.6510 0.6706,
0.6510 0.6510 0.6706,
0.6510 0.6510 0.6706,
0.6510 0.6510 0.6706,
0.6510 0.6510 0.6706,
0.6510 0.6510 0.6706,
0.6510 0.6510 0.6706,
0.6510 0.6510 0.6706,
0.6510 0.6510 0.6706,
0.6510 0.6510 0.6706,
0.6510 0.6510 0.6706,
0.6510 0.6510 0.6706,
0.6510 0.6510 0.6706,
0.6510 0.6510 0.6706,
0.6510 0.6510 0.6706,
0.6510 0.6510 0.6706,
0.6510 0.6510 0.6706,
0.6510 0.6510 0.6706,
0.6510 0.6510 0.6706,
0.6510 0.6510 0.6706,
0.6510 0.6510 0.6706,
0.6510 0.6510 0.6706,
0.6510 0.6510 0.6706,
0.6510 0.6510 0.6706,
0.6510 0.6510 0.6706,
0.6510 0.6510 0.6706,
0.6510 0.6510 0.6706,
0.6510 0.6510 0.6706,
0.6510 0.6510 0.6706,
0.6510 0.6510 0.6706,
0.6510 0.6510 0.6706,
0.6510 0.6510 0.6706,
0.6510 0.6510 0.6706,
0.6510 0.6510 0.6706,
0.6510 0.6510 0.6706,
0.6510 0.6510 0.6706,
0.6510 0.6510 0.6706,
0.6510 0.6510 0.6706,
0.6510 0.6510 0.6706,
0.6510 0.6510 0.6706,
0.6510 0.6510 0.6706,
0.6510 0.6510 0.6706,
0.6510 0.6510 0.6706,
0.6510 0.6510 0.6706,
0.6510 0.6510 0.6706,
0.6510 0.6510 0.6706,
0.6510 0.6510 0.6706,
0.6510 0.6510 0.6706,
0.6510 0.6510 0.6706,
0.6510 0.6510 0.6706,
0.6510 0.6510 0.6706,
0.6510 0.6510 0.6706,
0.6510 0.6510 0.6706,
0.6510 0.6510 0.6706,
0.6510 0.6510 0.6706,
0.6510 0.6510 0.6706,
0.6510 0.6510 0.6706,
0.6510 0.6510 0.6706,
0.6510 0.6510 0.6706,
0.6510 0.6510 0.6706,
0.6510 0.6510 0.6706,
0.6510 0.6510 0.6706,
0.6510 0.6510 0.6706,
0.6510 0.6510 0.6706,
0.6510 0.6510 0.6706,
0.6510 0.6510 0.6706,
0.6510 0.6510 0.6706,
0.6510 0.6510 0.6706,
0.6510 0.6510 0.6706,
0.6510 0.6510 0.6706,
0.6510 0.6510 0.6706,
0.6510 0.6510 0.6706,
0.6510 0.6510 0.6706,
0.6510 0.6510 0.6706,
0.6510 0.6510 0.6706,
0.6510 0.6510 0.6706,
0.6510 0.6510 0.6706,
0.6510 0.6510 0.6706,
0.6510 0.6510 0.6706,
0.6510 0.6510 0.6706,
0.6510 0.6510 0.6706,
0.6510 0.6510 0.6706,
0.6510 0.6510 0.6706,
0.6510 0.6510 0.6706,
0.6510 0.6510 0.6706,
0.6510 0.6510 0.6706,
0.6510 0.6510 0.6706,
0.6510 0.6510 0.6706,
0.6510 0.6510 0.6706,
0.6510 0.6510 0.6706,
0.6510 0.6510 0.6706,
0.6510 0.6510 0.6706,
0.6510 0.6510 0.6706,
0.6510 0.6510 0.6706,
0.6510 0.6510 0.6706,
0.6510 0.6510 0.6706,
0.6510 0.6510 0.6706,
0.6510 0.6510 0.6706,
0.6510 0.6510 0.6706,
0.6510 0.6510 0.6706,
0.6510 0.6510 0.6706,
0.6510 0.6510 0.6706,
0.6510 0.6510 0.6706,
0.6510 0.6510 0.6706,
0.6510 0.6510 0.6706,
0.6510 0.6510 0.6706,
0.6510 0.6510 0.6706,
0.6510 0.6510 0.6706,
0.6510 0.6510 0.6706,
0.6510 0.6510 0.6706,
0.6510 0.6510 0.6706,
0.6510 0.6510 0.6706,
0.6510 0.6510 0.6706,
0.6510 0.6510 0.6706,
0.6510 0.6510 0.6706,
0.6510 0.6510 0.6706,
0.6510 0.6510 0.6706,
0.6510 0.6510 0.6706,
0.6510 0.6510 0.6706,
0.6510 0.6510 0.6706,
0.6510 0.6510 0.6706,
0.6510 0.6510 0.6706,
0.6510 0.6510 0.6706,
0.6510 0.6510 0.6706,
0.6510 0.6510 0.6706,
0.6510 0.6510 0.6706,
0.6510 0.6510 0.6706,
0.6510 0.6510 0.6706,
0.6510 0.6510 0.6706,
0.6510 0.6510 0.6706,
0.6510 0.6510 0.6706,
0.6510 0.6510 0.6706,
0.6510 0.6510 0.6706,
0.6510 0.6510 0.6706,
0.6510 0.6510 0.6706,
0.6510 0.6510 0.6706,
0.6510 0.6510 0.6706,
0.6510 0.6510 0.6706,
0.6510 0.6510 0.6706,
0.6510 0.6510 0.6706,
0.6510 0.6510 0.6706,
0.6510 0.6510 0.6706,
0.6510 0.6510 0.6706,
0.6510 0.6510 0.6706,
0.6510 0.6510 0.6706,
0.6510 0.6510 0.6706,
0.6510 0.6510 0.6706,
0.6510 0.6510 0.6706,
0.6510 0.6510 0.6706,
0.6510 0.6510 0.6706,
0.6510 0.6510 0.6706,
0.6510 0.6510 0.6706,
0.6510 0.6510 0.6706,
0.6510 0.6510 0.6706,
0.6510 0.6510 0.6706,
0.6510 0.6510 0.6706,
0.6510 0.6510 0.6706,
0.6510 0.6510 0.6706,
0.6510 0.6510 0.6706,
0.6510 0.6510 0.6706,
0.6510 0.6510 0.6706,
0.6510 0.6510 0.6706,
0.6510 0.6510 0.6706,
0.6510 0.6510 0.6706,
0.6510 0.6510 0.6706,
0.6510 0.6510 0.6706,
0.6510 0.6510 0.6706,
0.6510 0.6510 0.6706,
0.6510 0.6510 0.6706,
0.6510 0.6510 0.6706,
0.6510 0.6510 0.6706,
0.6510 0.6510 0.6706,
0.6510 0.6510 0.6706,
0.6510 0.6510 0.6706,
0.6510 0.6510 0.6706,
0.6510 0.6510 0.6706,
0.6510 0.6510 0.6706,
0.6510 0.6510 0.6706,
0.6510 0.6510 0.6706,
0.6510 0.6510 0.6706,
0.6510 0.6510 0.6706,
0.6510 0.6510 0.6706,
0.6510 0.6510 0.6706,
0.6510 0.6510 0.6706,
0.6510 0.6510 0.6706,
0.6510 0.6510 0.6706,
0.6510 0.6510 0.6706,
0.6510 0.6510 0.6706,
0.6510 0.6510 0.6706,
0.6510 0.6510 0.6706,
0.6510 0.6510 0.6706,
0.6510 0.6510 0.6706,
0.6510 0.6510 0.6706,
0.6510 0.6510 0.6706,
0.6510 0.6510 0.6706,
0.6510 0.6510 0.6706,
0.6510 0.6510 0.6706,
0.6510 0.6510 0.6706,
0.6510 0.6510 0.6706,
0.6510 0.6510 0.6706,
0.6510 0.6510 0.6706,
0.6510 0.6510 0.6706,
0.6510 0.6510 0.6706,
0.6510 0.6510 0.6706,
0.6510 0.6510 0.6706,
0.6510 0.6510 0.6706,
0.6510 0.6510 0.6706,
0.6510 0.6510 0.6706,
0.6510 0.6510 0.6706,
0.6510 0.6510 0.6706,
0.6510 0.6510 0.6706,
0.6510 0.6510 0.6706,
0.6510 0.6510 0.6706,
0.6510 0.6510 0.6706,
0.6510 0.6510 0.6706,
0.6510 0.6510 0.6706,
0.6510 0.6510 0.6706,
0.6510 0.6510 0.6706,
0.6510 0.6510 0.6706,
0.6510 0.6510 0.6706,
  ] } 
  normalPerVertex TRUE
  normal Normal {
   vector [
-0.0205 -0.9993 0.0316,
-0.7651 -0.6239 0.1595,
-0.0617 -0.8818 -0.4676,
-0.3594 -0.9091 0.2107,
-0.7651 -0.6239 0.1595,
-0.0205 -0.9993 0.0316,
-0.2234 -0.9040 0.3644,
-0.3594 -0.9091 0.2107,
-0.0205 -0.9993 0.0316,
-0.1696 -0.9802 0.1021,
-0.2234 -0.9040 0.3644,
-0.0205 -0.9993 0.0316,
-0.0066 -0.8624 -0.5061,
-0.1696 -0.9802 0.1021,
-0.0205 -0.9993 0.0316,
-0.2312 -0.9386 -0.2560,
-0.1696 -0.9802 0.1021,
-0.0066 -0.8624 -0.5061,
-0.2203 -0.9292 0.2967,
-0.2234 -0.9040 0.3644,
-0.1696 -0.9802 0.1021,
-0.2312 -0.9386 -0.2560,
-0.2203 -0.9292 0.2967,
-0.1696 -0.9802 0.1021,
-0.3538 -0.9287 0.1107,
-0.2203 -0.9292 0.2967,
-0.2312 -0.9386 -0.2560,
-0.0431 -0.8216 -0.5685,
-0.3538 -0.9287 0.1107,
-0.2312 -0.9386 -0.2560,
-0.2064 -0.5932 -0.7781,
-0.0431 -0.8216 -0.5685,
-0.2312 -0.9386 -0.2560,
-0.0066 -0.8624 -0.5061,
-0.2064 -0.5932 -0.7781,
-0.2312 -0.9386 -0.2560,
-0.3957 0.0360 -0.9177,
-0.2064 -0.5932 -0.7781,
-0.0066 -0.8624 -0.5061,
0.1753 -0.7205 -0.6709,
-0.3957 0.0360 -0.9177,
-0.0066 -0.8624 -0.5061,
-0.6594 0.2934 -0.6921,
-0.3957 0.0360 -0.9177,
0.1753 -0.7205 -0.6709,
-0.3099 0.7852 -0.5361,
-0.3957 0.0360 -0.9177,
-0.6594 0.2934 -0.6921,
-0.5178 -0.1641 -0.8397,
-0.2064 -0.5932 -0.7781,
-0.3957 0.0360 -0.9177,
-0.2247 -0.3228 -0.9194,
-0.2064 -0.5932 -0.7781,
-0.5178 -0.1641 -0.8397,
-0.6293 -0.3485 -0.6946,
-0.2247 -0.3228 -0.9194,
-0.5178 -0.1641 -0.8397,
-0.8059 0.0894 -0.5852,
-0.6293 -0.3485 -0.6946,
-0.5178 -0.1641 -0.8397,
-0.3957 0.0360 -0.9177,
-0.8059 0.0894 -0.5852,
-0.5178 -0.1641 -0.8397,
-0.6244 0.4962 -0.6033,
-0.8059 0.0894 -0.5852,
-0.3957 0.0360 -0.9177,
-0.3099 0.7852 -0.5361,
-0.6244 0.4962 -0.6033,
-0.3957 0.0360 -0.9177,
-0.8671 0.3081 -0.3915,
-0.6244 0.4962 -0.6033,
-0.3099 0.7852 -0.5361,
-0.6594 0.2934 -0.6921,
-0.8671 0.3081 -0.3915,
-0.3099 0.7852 -0.5361,
-0.5187 0.7147 -0.4693,
-0.6244 0.4962 -0.6033,
-0.8671 0.3081 -0.3915,
-0.7754 0.5599 -0.2920,
-0.5187 0.7147 -0.4693,
-0.8671 0.3081 -0.3915,
-0.4124 0.8291 0.3774,
-0.5187 0.7147 -0.4693,
-0.7754 0.5599 -0.2920,
-0.2931 0.7979 0.5267,
-0.4124 0.8291 0.3774,
-0.7754 0.5599 -0.2920,
-0.7805 -0.0557 0.6227,
-0.2931 0.7979 0.5267,
-0.7754 0.5599 -0.2920,
-0.0632 0.1872 0.9803,
-0.2931 0.7979 0.5267,
-0.7805 -0.0557 0.6227,
-0.4124 0.8291 0.3774,
-0.2931 0.7979 0.5267,
-0.0632 0.1872 0.9803,
-0.7779 0.5394 -0.3224,
-0.5187 0.7147 -0.4693,
-0.4124 0.8291 0.3774,
-0.7784 0.5754 0.2510,
-0.7779 0.5394 -0.3224,
-0.4124 0.8291 0.3774,
-0.4914 0.3657 0.7904,
-0.7784 0.5754 0.2510,
-0.4124 0.8291 0.3774,
-0.2466 -0.1869 0.9509,
-0.4914 0.3657 0.7904,
-0.4124 0.8291 0.3774,
-0.0632 0.1872 0.9803,
-0.2466 -0.1869 0.9509,
-0.4124 0.8291 0.3774,
-0.2766 -0.0234 0.9607,
-0.4914 0.3657 0.7904,
-0.2466 -0.1869 0.9509,
-0.3006 -0.6943 0.6539,
-0.2766 -0.0234 0.9607,
-0.2466 -0.1869 0.9509,
-0.2371 -0.6555 0.7170,
-0.2766 -0.0234 0.9607,
-0.3006 -0.6943 0.6539,
-0.1944 0.0565 0.9793,
-0.2766 -0.0234 0.9607,
-0.2371 -0.6555 0.7170,
-0.1474 0.0506 0.9878,
-0.1944 0.0565 0.9793,
-0.2371 -0.6555 0.7170,
0.0827 -0.6800 0.7286,
-0.1474 0.0506 0.9878,
-0.2371 -0.6555 0.7170,
0.5421 0.0955 0.8349,
-0.1474 0.0506 0.9878,
0.0827 -0.6800 0.7286,
0.8347 -0.4083 0.3696,
0.5421 0.0955 0.8349,
0.0827 -0.6800 0.7286,
0.8427 -0.5238 0.1246,
0.8347 -0.4083 0.3696,
0.0827 -0.6800 0.7286,
-0.2866 -0.7068 0.6468,
0.8427 -0.5238 0.1246,
0.0827 -0.6800 0.7286,
-0.2371 -0.6555 0.7170,
-0.2866 -0.7068 0.6468,
0.0827 -0.6800 0.7286,
0.8520 -0.5094 0.1211,
0.8347 -0.4083 0.3696,
0.8427 -0.5238 0.1246,
0.9032 -0.3146 0.2920,
0.8347 -0.4083 0.3696,
0.8520 -0.5094 0.1211,
0.7481 -0.6441 -0.1596,
0.9032 -0.3146 0.2920,
0.8520 -0.5094 0.1211,
0.9000 -0.3786 -0.2161,
0.9032 -0.3146 0.2920,
0.7481 -0.6441 -0.1596,
0.6571 -0.5454 -0.5203,
0.9000 -0.3786 -0.2161,
0.7481 -0.6441 -0.1596,
0.4545 -0.6489 -0.6102,
0.6571 -0.5454 -0.5203,
0.7481 -0.6441 -0.1596,
0.5336 -0.6300 -0.5642,
0.4545 -0.6489 -0.6102,
0.7481 -0.6441 -0.1596,
0.4404 -0.3764 -0.8151,
0.6571 -0.5454 -0.5203,
0.4545 -0.6489 -0.6102,
0.1263 -0.5276 -0.8401,
0.4404 -0.3764 -0.8151,
0.4545 -0.6489 -0.6102,
0.2052 -0.2384 -0.9492,
0.4404 -0.3764 -0.8151,
0.1263 -0.5276 -0.8401,
0.5058 -0.0817 -0.8588,
0.4404 -0.3764 -0.8151,
0.2052 -0.2384 -0.9492,
0.2878 -0.2692 -0.9191,
0.5058 -0.0817 -0.8588,
0.2052 -0.2384 -0.9492,
0.0032 -0.3704 -0.9289,
0.2878 -0.2692 -0.9191,
0.2052 -0.2384 -0.9492,
0.4708 -0.2090 -0.8571,
0.2878 -0.2692 -0.9191,
0.0032 -0.3704 -0.9289,
0.5863 -0.0835 -0.8058,
0.2878 -0.2692 -0.9191,
0.4708 -0.2090 -0.8571,
0.6581 0.4512 -0.6027,
0.5863 -0.0835 -0.8058,
0.4708 -0.2090 -0.8571,
0.7502 0.3631 -0.5526,
0.5863 -0.0835 -0.8058,
0.6581 0.4512 -0.6027,
0.6849 0.6732 -0.2790,
0.7502 0.3631 -0.5526,
0.6581 0.4512 -0.6027,
0.6623 0.6960 -0.2775,
0.7502 0.3631 -0.5526,
0.6849 0.6732 -0.2790,
0.5720 0.8185 0.0537,
0.6623 0.6960 -0.2775,
0.6849 0.6732 -0.2790,
0.5196 0.8116 -0.2669,
0.5720 0.8185 0.0537,
0.6849 0.6732 -0.2790,
0.6581 0.4512 -0.6027,
0.5196 0.8116 -0.2669,
0.6849 0.6732 -0.2790,
0.3968 0.8941 0.2075,
0.5720 0.8185 0.0537,
0.5196 0.8116 -0.2669,
0.1847 0.8881 0.4209,
0.5720 0.8185 0.0537,
0.3968 0.8941 0.2075,
-0.0843 0.9391 0.3332,
0.1847 0.8881 0.4209,
0.3968 0.8941 0.2075,
0.5196 0.8116 -0.2669,
-0.0843 0.9391 0.3332,
0.3968 0.8941 0.2075,
0.3873 0.9192 0.0707,
0.5720 0.8185 0.0537,
0.1847 0.8881 0.4209,
0.1901 0.8717 0.4516,
0.3873 0.9192 0.0707,
0.1847 0.8881 0.4209,
-0.0363 0.8134 0.5805,
0.1901 0.8717 0.4516,
0.1847 0.8881 0.4209,
-0.1732 0.8264 0.5357,
-0.0363 0.8134 0.5805,
0.1847 0.8881 0.4209,
-0.0843 0.9391 0.3332,
-0.1732 0.8264 0.5357,
0.1847 0.8881 0.4209,
-0.4432 0.8145 0.3745,
-0.1732 0.8264 0.5357,
-0.0843 0.9391 0.3332,
-0.7847 0.6030 0.1437,
-0.4432 0.8145 0.3745,
-0.0843 0.9391 0.3332,
-0.6756 0.6700 0.3078,
-0.4432 0.8145 0.3745,
-0.7847 0.6030 0.1437,
-0.9538 0.2863 -0.0915,
-0.6756 0.6700 0.3078,
-0.7847 0.6030 0.1437,
-0.9411 -0.1136 -0.3184,
-0.9538 0.2863 -0.0915,
-0.7847 0.6030 0.1437,
-0.8772 0.3943 0.2741,
-0.9411 -0.1136 -0.3184,
-0.7847 0.6030 0.1437,
-0.8624 -0.2969 -0.4100,
-0.9411 -0.1136 -0.3184,
-0.8772 0.3943 0.2741,
-0.8508 -0.1150 -0.5128,
-0.8624 -0.2969 -0.4100,
-0.8772 0.3943 0.2741,
-0.3490 0.8731 0.3405,
-0.8508 -0.1150 -0.5128,
-0.8772 0.3943 0.2741,
-0.2164 0.7633 -0.6087,
-0.8508 -0.1150 -0.5128,
-0.3490 0.8731 0.3405,
0.2100 0.9755 -0.0648,
-0.2164 0.7633 -0.6087,
-0.3490 0.8731 0.3405,
0.4970 0.8509 -0.1703,
0.2100 0.9755 -0.0648,
-0.3490 0.8731 0.3405,
-0.8398 0.5006 0.2102,
-0.6756 0.6700 0.3078,
-0.9538 0.2863 -0.0915,
-0.9364 0.2552 -0.2409,
-0.8398 0.5006 0.2102,
-0.9538 0.2863 -0.0915,
-0.5460 0.6523 0.5256,
-0.6756 0.6700 0.3078,
-0.8398 0.5006 0.2102,
-0.6232 0.4846 0.6138,
-0.5460 0.6523 0.5256,
-0.8398 0.5006 0.2102,
-0.3202 0.6531 0.6862,
-0.5460 0.6523 0.5256,
-0.6232 0.4846 0.6138,
-0.3830 0.2985 0.8742,
-0.3202 0.6531 0.6862,
-0.6232 0.4846 0.6138,
-0.1331 0.4612 0.8772,
-0.3202 0.6531 0.6862,
-0.3830 0.2985 0.8742,
-0.1732 0.8264 0.5357,
-0.4432 0.8145 0.3745,
-0.6756 0.6700 0.3078,
-0.5460 0.6523 0.5256,
-0.1732 0.8264 0.5357,
-0.6756 0.6700 0.3078,
-0.3202 0.6531 0.6862,
-0.1732 0.8264 0.5357,
-0.5460 0.6523 0.5256,
-0.0363 0.8134 0.5805,
-0.1732 0.8264 0.5357,
-0.3202 0.6531 0.6862,
-0.1331 0.4612 0.8772,
-0.0363 0.8134 0.5805,
-0.3202 0.6531 0.6862,
0.1427 0.6341 0.7599,
-0.0363 0.8134 0.5805,
-0.1331 0.4612 0.8772,
0.0074 0.2654 0.9641,
0.1427 0.6341 0.7599,
-0.1331 0.4612 0.8772,
0.4499 0.3274 0.8309,
0.1427 0.6341 0.7599,
0.0074 0.2654 0.9641,
0.2885 0.2948 0.9110,
0.4499 0.3274 0.8309,
0.0074 0.2654 0.9641,
0.7901 0.0071 0.6129,
0.4499 0.3274 0.8309,
0.2885 0.2948 0.9110,
0.8092 0.1307 0.5728,
0.4499 0.3274 0.8309,
0.7901 0.0071 0.6129,
0.4944 0.6148 0.6145,
0.4499 0.3274 0.8309,
0.8092 0.1307 0.5728,
0.8471 0.4846 0.2181,
0.4944 0.6148 0.6145,
0.8092 0.1307 0.5728,
0.9830 -0.0432 0.1785,
0.8471 0.4846 0.2181,
0.8092 0.1307 0.5728,
0.9308 0.1844 -0.3156,
0.8471 0.4846 0.2181,
0.9830 -0.0432 0.1785,
0.7034 0.6688 -0.2406,
0.8471 0.4846 0.2181,
0.9308 0.1844 -0.3156,
0.7435 0.3371 -0.5776,
0.7034 0.6688 -0.2406,
0.9308 0.1844 -0.3156,
0.7270 -0.1746 -0.6641,
0.7435 0.3371 -0.5776,
0.9308 0.1844 -0.3156,
0.4937 0.8380 0.2323,
0.8471 0.4846 0.2181,
0.7034 0.6688 -0.2406,
0.4944 0.6148 0.6145,
0.8471 0.4846 0.2181,
0.4937 0.8380 0.2323,
0.1427 0.6341 0.7599,
0.4499 0.3274 0.8309,
0.4944 0.6148 0.6145,
0.1901 0.8717 0.4516,
-0.0363 0.8134 0.5805,
0.1427 0.6341 0.7599,
0.4944 0.6148 0.6145,
0.1901 0.8717 0.4516,
0.1427 0.6341 0.7599,
0.4937 0.8380 0.2323,
0.1901 0.8717 0.4516,
0.4944 0.6148 0.6145,
0.3873 0.9192 0.0707,
0.1901 0.8717 0.4516,
0.4937 0.8380 0.2323,
0.7034 0.6688 -0.2406,
0.3873 0.9192 0.0707,
0.4937 0.8380 0.2323,
0.6623 0.6960 -0.2775,
0.5720 0.8185 0.0537,
0.3873 0.9192 0.0707,
0.7034 0.6688 -0.2406,
0.6623 0.6960 -0.2775,
0.3873 0.9192 0.0707,
0.7435 0.3371 -0.5776,
0.6623 0.6960 -0.2775,
0.7034 0.6688 -0.2406,
0.7502 0.3631 -0.5526,
0.6623 0.6960 -0.2775,
0.7435 0.3371 -0.5776,
0.5863 -0.0835 -0.8058,
0.5058 -0.0817 -0.8588,
0.2878 -0.2692 -0.9191,
0.7502 0.3631 -0.5526,
0.5058 -0.0817 -0.8588,
0.5863 -0.0835 -0.8058,
0.7435 0.3371 -0.5776,
0.5058 -0.0817 -0.8588,
0.7502 0.3631 -0.5526,
0.7270 -0.1746 -0.6641,
0.5058 -0.0817 -0.8588,
0.7435 0.3371 -0.5776,
0.4404 -0.3764 -0.8151,
0.5058 -0.0817 -0.8588,
0.7270 -0.1746 -0.6641,
0.6571 -0.5454 -0.5203,
0.4404 -0.3764 -0.8151,
0.7270 -0.1746 -0.6641,
0.9000 -0.3786 -0.2161,
0.6571 -0.5454 -0.5203,
0.7270 -0.1746 -0.6641,
0.9308 0.1844 -0.3156,
0.9000 -0.3786 -0.2161,
0.7270 -0.1746 -0.6641,
0.9830 -0.0432 0.1785,
0.9000 -0.3786 -0.2161,
0.9308 0.1844 -0.3156,
0.9032 -0.3146 0.2920,
0.9000 -0.3786 -0.2161,
0.9830 -0.0432 0.1785,
0.8092 0.1307 0.5728,
0.9032 -0.3146 0.2920,
0.9830 -0.0432 0.1785,
0.7901 0.0071 0.6129,
0.9032 -0.3146 0.2920,
0.8092 0.1307 0.5728,
0.8347 -0.4083 0.3696,
0.9032 -0.3146 0.2920,
0.7901 0.0071 0.6129,
0.5421 0.0955 0.8349,
0.8347 -0.4083 0.3696,
0.7901 0.0071 0.6129,
0.2885 0.2948 0.9110,
0.5421 0.0955 0.8349,
0.7901 0.0071 0.6129,
0.1516 0.5480 0.8226,
0.5421 0.0955 0.8349,
0.2885 0.2948 0.9110,
0.1833 0.7471 0.6389,
0.5421 0.0955 0.8349,
0.1516 0.5480 0.8226,
-0.6244 0.4962 -0.6033,
-0.5187 0.7147 -0.4693,
-0.7779 0.5394 -0.3224,
-0.7779 0.5394 -0.3224,
-0.8059 0.0894 -0.5852,
-0.6244 0.4962 -0.6033,
-0.2173 -0.7908 0.5722,
-0.3594 -0.9091 0.2107,
-0.2234 -0.9040 0.3644,
-0.9307 -0.3657 0.0038,
-0.3594 -0.9091 0.2107,
-0.2173 -0.7908 0.5722,
-0.8772 0.3943 0.2741,
-0.7847 0.6030 0.1437,
-0.0843 0.9391 0.3332,
-0.3490 0.8731 0.3405,
-0.8772 0.3943 0.2741,
-0.0843 0.9391 0.3332,
0.4970 0.8509 -0.1703,
-0.3490 0.8731 0.3405,
-0.0843 0.9391 0.3332,
0.5196 0.8116 -0.2669,
0.4970 0.8509 -0.1703,
-0.0843 0.9391 0.3332,
-0.3225 -0.4848 -0.8130,
0.4708 -0.2090 -0.8571,
0.0032 -0.3704 -0.9289,
-0.1601 -0.7615 -0.6281,
0.4708 -0.2090 -0.8571,
-0.3225 -0.4848 -0.8130,
-0.4675 0.0200 -0.8838,
-0.1601 -0.7615 -0.6281,
-0.3225 -0.4848 -0.8130,
0.4334 -0.4378 -0.7878,
-0.1601 -0.7615 -0.6281,
-0.4675 0.0200 -0.8838,
0.5196 0.8116 -0.2669,
0.6581 0.4512 -0.6027,
0.4708 -0.2090 -0.8571,
0.8427 -0.5238 0.1246,
0.7481 -0.6441 -0.1596,
0.8520 -0.5094 0.1211,
0.5336 -0.6300 -0.5642,
0.7481 -0.6441 -0.1596,
0.8427 -0.5238 0.1246,
0.8499 -0.5070 -0.1434,
0.5336 -0.6300 -0.5642,
0.8427 -0.5238 0.1246,
-0.0205 -0.9993 0.0316,
0.1753 -0.7205 -0.6709,
-0.0066 -0.8624 -0.5061,
-0.0617 -0.8818 -0.4676,
0.1753 -0.7205 -0.6709,
-0.0205 -0.9993 0.0316,
-0.6594 0.2934 -0.6921,
0.1753 -0.7205 -0.6709,
-0.0617 -0.8818 -0.4676,
-0.7651 -0.6239 0.1595,
-0.8671 0.3081 -0.3915,
-0.6594 0.2934 -0.6921,
-0.9307 -0.3657 0.0038,
-0.7754 0.5599 -0.2920,
-0.8671 0.3081 -0.3915,
-0.3594 -0.9091 0.2107,
-0.9307 -0.3657 0.0038,
-0.8671 0.3081 -0.3915,
-0.7651 -0.6239 0.1595,
-0.3594 -0.9091 0.2107,
-0.8671 0.3081 -0.3915,
-0.7805 -0.0557 0.6227,
-0.7754 0.5599 -0.2920,
-0.9307 -0.3657 0.0038,
0.5336 -0.6300 -0.5642,
-0.3538 -0.9287 0.1107,
-0.0431 -0.8216 -0.5685,
0.4545 -0.6489 -0.6102,
0.5336 -0.6300 -0.5642,
-0.0431 -0.8216 -0.5685,
0.1263 -0.5276 -0.8401,
0.4545 -0.6489 -0.6102,
-0.0431 -0.8216 -0.5685,
-0.2064 -0.5932 -0.7781,
0.1263 -0.5276 -0.8401,
-0.0431 -0.8216 -0.5685,
-0.2247 -0.3228 -0.9194,
0.1263 -0.5276 -0.8401,
-0.2064 -0.5932 -0.7781,
0.2052 -0.2384 -0.9492,
0.1263 -0.5276 -0.8401,
-0.2247 -0.3228 -0.9194,
0.0032 -0.3704 -0.9289,
0.2052 -0.2384 -0.9492,
-0.2247 -0.3228 -0.9194,
-0.6293 -0.3485 -0.6946,
0.0032 -0.3704 -0.9289,
-0.2247 -0.3228 -0.9194,
-0.3225 -0.4848 -0.8130,
0.0032 -0.3704 -0.9289,
-0.6293 -0.3485 -0.6946,
-0.2371 -0.6555 0.7170,
-0.2203 -0.9292 0.2967,
-0.3538 -0.9287 0.1107,
-0.2866 -0.7068 0.6468,
-0.2371 -0.6555 0.7170,
-0.3538 -0.9287 0.1107,
-0.6847 -0.6699 -0.2870,
-0.2866 -0.7068 0.6468,
-0.3538 -0.9287 0.1107,
-0.4996 -0.7176 0.4853,
-0.2866 -0.7068 0.6468,
-0.6847 -0.6699 -0.2870,
-0.3006 -0.6943 0.6539,
-0.2203 -0.9292 0.2967,
-0.2371 -0.6555 0.7170,
-0.8059 0.0894 -0.5852,
-0.9538 0.2863 -0.0915,
-0.9411 -0.1136 -0.3184,
-0.6293 -0.3485 -0.6946,
-0.8059 0.0894 -0.5852,
-0.9411 -0.1136 -0.3184,
-0.8624 -0.2969 -0.4100,
-0.6293 -0.3485 -0.6946,
-0.9411 -0.1136 -0.3184,
-0.3225 -0.4848 -0.8130,
-0.6293 -0.3485 -0.6946,
-0.8624 -0.2969 -0.4100,
-0.8508 -0.1150 -0.5128,
-0.3225 -0.4848 -0.8130,
-0.8624 -0.2969 -0.4100,
-0.4675 0.0200 -0.8838,
-0.3225 -0.4848 -0.8130,
-0.8508 -0.1150 -0.5128,
-0.2164 0.7633 -0.6087,
-0.4675 0.0200 -0.8838,
-0.8508 -0.1150 -0.5128,
-0.9364 0.2552 -0.2409,
-0.9538 0.2863 -0.0915,
-0.8059 0.0894 -0.5852,
-0.7779 0.5394 -0.3224,
-0.9364 0.2552 -0.2409,
-0.8059 0.0894 -0.5852,
-0.7784 0.5754 0.2510,
-0.9364 0.2552 -0.2409,
-0.7779 0.5394 -0.3224,
-0.8398 0.5006 0.2102,
-0.9364 0.2552 -0.2409,
-0.7784 0.5754 0.2510,
-0.6232 0.4846 0.6138,
-0.8398 0.5006 0.2102,
-0.7784 0.5754 0.2510,
-0.4914 0.3657 0.7904,
-0.6232 0.4846 0.6138,
-0.7784 0.5754 0.2510,
-0.3830 0.2985 0.8742,
-0.6232 0.4846 0.6138,
-0.4914 0.3657 0.7904,
-0.2766 -0.0234 0.9607,
-0.3830 0.2985 0.8742,
-0.4914 0.3657 0.7904,
-0.1944 0.0565 0.9793,
-0.3830 0.2985 0.8742,
-0.2766 -0.0234 0.9607,
-0.1331 0.4612 0.8772,
-0.3830 0.2985 0.8742,
-0.1944 0.0565 0.9793,
0.0074 0.2654 0.9641,
-0.1331 0.4612 0.8772,
-0.1944 0.0565 0.9793,
-0.1474 0.0506 0.9878,
0.0074 0.2654 0.9641,
-0.1944 0.0565 0.9793,
0.2885 0.2948 0.9110,
0.0074 0.2654 0.9641,
-0.1474 0.0506 0.9878,
0.1516 0.5480 0.8226,
0.2885 0.2948 0.9110,
-0.1474 0.0506 0.9878,
0.4708 -0.2090 -0.8571,
0.4970 0.8509 -0.1703,
0.5196 0.8116 -0.2669,
-0.2173 -0.7908 0.5722,
-0.0632 0.1872 0.9803,
-0.7805 -0.0557 0.6227,
-0.9307 -0.3657 0.0038,
-0.2173 -0.7908 0.5722,
-0.7805 -0.0557 0.6227,
-0.2466 -0.1869 0.9509,
-0.0632 0.1872 0.9803,
-0.2173 -0.7908 0.5722,
-0.2234 -0.9040 0.3644,
-0.2466 -0.1869 0.9509,
-0.2173 -0.7908 0.5722,
-0.3006 -0.6943 0.6539,
-0.2466 -0.1869 0.9509,
-0.2234 -0.9040 0.3644,
-0.2203 -0.9292 0.2967,
-0.3006 -0.6943 0.6539,
-0.2234 -0.9040 0.3644,
-0.1474 0.0506 0.9878,
0.1833 0.7471 0.6389,
0.1516 0.5480 0.8226,
0.5336 -0.6300 -0.5642,
-0.6847 -0.6699 -0.2870,
-0.3538 -0.9287 0.1107,
0.1833 0.7471 0.6389,
0.5421 0.0955 0.8349,
-0.1474 0.0506 0.9878,
-0.6594 0.2934 -0.6921,
-0.0617 -0.8818 -0.4676,
-0.7651 -0.6239 0.1595,
-0.2164 0.7633 -0.6087,
0.2100 0.9755 -0.0648,
0.4970 0.8509 -0.1703,
-0.4675 0.0200 -0.8838,
-0.2164 0.7633 -0.6087,
0.4970 0.8509 -0.1703,
0.4708 -0.2090 -0.8571,
0.4334 -0.4378 -0.7878,
-0.1601 -0.7615 -0.6281,
0.4970 0.8509 -0.1703,
0.4708 -0.2090 -0.8571,
0.4334 -0.4378 -0.7878,
-0.4675 0.0200 -0.8838,
0.4970 0.8509 -0.1703,
0.4334 -0.4378 -0.7878,
-0.6847 -0.6699 -0.2870,
0.5336 -0.6300 -0.5642,
0.8499 -0.5070 -0.1434,
-0.4996 -0.7176 0.4853,
-0.6847 -0.6699 -0.2870,
0.8499 -0.5070 -0.1434,
-0.2866 -0.7068 0.6468,
-0.4996 -0.7176 0.4853,
0.8499 -0.5070 -0.1434,
0.8427 -0.5238 0.1246,
-0.2866 -0.7068 0.6468,
0.8499 -0.5070 -0.1434,
  ] }
  normalIndex [ 
0 1 2 -1,
3 4 5 -1,
6 7 8 -1,
9 10 11 -1,
12 13 14 -1,
15 16 17 -1,
18 19 20 -1,
21 22 23 -1,
24 25 26 -1,
27 28 29 -1,
30 31 32 -1,
33 34 35 -1,
36 37 38 -1,
39 40 41 -1,
42 43 44 -1,
45 46 47 -1,
48 49 50 -1,
51 52 53 -1,
54 55 56 -1,
57 58 59 -1,
60 61 62 -1,
63 64 65 -1,
66 67 68 -1,
69 70 71 -1,
72 73 74 -1,
75 76 77 -1,
78 79 80 -1,
81 82 83 -1,
84 85 86 -1,
87 88 89 -1,
90 91 92 -1,
93 94 95 -1,
96 97 98 -1,
99 100 101 -1,
102 103 104 -1,
105 106 107 -1,
108 109 110 -1,
111 112 113 -1,
114 115 116 -1,
117 118 119 -1,
120 121 122 -1,
123 124 125 -1,
126 127 128 -1,
129 130 131 -1,
132 133 134 -1,
135 136 137 -1,
138 139 140 -1,
141 142 143 -1,
144 145 146 -1,
147 148 149 -1,
150 151 152 -1,
153 154 155 -1,
156 157 158 -1,
159 160 161 -1,
162 163 164 -1,
165 166 167 -1,
168 169 170 -1,
171 172 173 -1,
174 175 176 -1,
177 178 179 -1,
180 181 182 -1,
183 184 185 -1,
186 187 188 -1,
189 190 191 -1,
192 193 194 -1,
195 196 197 -1,
198 199 200 -1,
201 202 203 -1,
204 205 206 -1,
207 208 209 -1,
210 211 212 -1,
213 214 215 -1,
216 217 218 -1,
219 220 221 -1,
222 223 224 -1,
225 226 227 -1,
228 229 230 -1,
231 232 233 -1,
234 235 236 -1,
237 238 239 -1,
240 241 242 -1,
243 244 245 -1,
246 247 248 -1,
249 250 251 -1,
252 253 254 -1,
255 256 257 -1,
258 259 260 -1,
261 262 263 -1,
264 265 266 -1,
267 268 269 -1,
270 271 272 -1,
273 274 275 -1,
276 277 278 -1,
279 280 281 -1,
282 283 284 -1,
285 286 287 -1,
288 289 290 -1,
291 292 293 -1,
294 295 296 -1,
297 298 299 -1,
300 301 302 -1,
303 304 305 -1,
306 307 308 -1,
309 310 311 -1,
312 313 314 -1,
315 316 317 -1,
318 319 320 -1,
321 322 323 -1,
324 325 326 -1,
327 328 329 -1,
330 331 332 -1,
333 334 335 -1,
336 337 338 -1,
339 340 341 -1,
342 343 344 -1,
345 346 347 -1,
348 349 350 -1,
351 352 353 -1,
354 355 356 -1,
357 358 359 -1,
360 361 362 -1,
363 364 365 -1,
366 367 368 -1,
369 370 371 -1,
372 373 374 -1,
375 376 377 -1,
378 379 380 -1,
381 382 383 -1,
384 385 386 -1,
387 388 389 -1,
390 391 392 -1,
393 394 395 -1,
396 397 398 -1,
399 400 401 -1,
402 403 404 -1,
405 406 407 -1,
408 409 410 -1,
411 412 413 -1,
414 415 416 -1,
417 418 419 -1,
420 421 422 -1,
423 424 425 -1,
426 427 428 -1,
429 430 431 -1,
432 433 434 -1,
435 436 437 -1,
438 439 440 -1,
441 442 443 -1,
444 445 446 -1,
447 448 449 -1,
450 451 452 -1,
453 454 455 -1,
456 457 458 -1,
459 460 461 -1,
462 463 464 -1,
465 466 467 -1,
468 469 470 -1,
471 472 473 -1,
474 475 476 -1,
477 478 479 -1,
480 481 482 -1,
483 484 485 -1,
486 487 488 -1,
489 490 491 -1,
492 493 494 -1,
495 496 497 -1,
498 499 500 -1,
501 502 503 -1,
504 505 506 -1,
507 508 509 -1,
510 511 512 -1,
513 514 515 -1,
516 517 518 -1,
519 520 521 -1,
522 523 524 -1,
525 526 527 -1,
528 529 530 -1,
531 532 533 -1,
534 535 536 -1,
537 538 539 -1,
540 541 542 -1,
543 544 545 -1,
546 547 548 -1,
549 550 551 -1,
552 553 554 -1,
555 556 557 -1,
558 559 560 -1,
561 562 563 -1,
564 565 566 -1,
567 568 569 -1,
570 571 572 -1,
573 574 575 -1,
576 577 578 -1,
579 580 581 -1,
582 583 584 -1,
585 586 587 -1,
588 589 590 -1,
591 592 593 -1,
594 595 596 -1,
597 598 599 -1,
600 601 602 -1,
603 604 605 -1,
606 607 608 -1,
609 610 611 -1,
612 613 614 -1,
615 616 617 -1,
618 619 620 -1,
621 622 623 -1,
624 625 626 -1,
627 628 629 -1,
630 631 632 -1,
633 634 635 -1,
636 637 638 -1,
639 640 641 -1,
642 643 644 -1,
645 646 647 -1,
648 649 650 -1,
651 652 653 -1,
654 655 656 -1,
657 658 659 -1,
660 661 662 -1,
663 664 665 -1,
666 667 668 -1,
669 670 671 -1,
 ] 
 }
}
