#VRML V2.0 utf8

Viewpoint {
 position 0 0 99.28015900
 orientation 1 0 0 0
 description "Z view"
 fieldOfView 0.481470
}
DirectionalLight {
 direction -0.348155 -0.348155   -0.870
}
NavigationInfo {
 headlight TRUE
 type "EXAMINE"
}
Transform {
 translation -0.581518 -0.021883 0.125458
 children Shape {
  geometry Sphere { radius 2.560000 }
  appearance Appearance {
   material Material { diffuseColor 0.6510 0.6510 0.6706 
                       specularColor 0.8 0.8 0.8 
                       shininess 0.8 }
  }
 }
}
Transform {
 translation 0.034779 -0.124985 -0.164726
 children Shape {
  geometry Sphere { radius 6.130000 }
  appearance Appearance {
   material Material { diffuseColor 0.6510 0.6510 0.6706 
                       specularColor 0.8 0.8 0.8 
                       shininess 0.8 }
  }
 }
}
